<svg id="Ebene_1" data-name="Ebene 1" xmlns="http://www.w3.org/2000/svg" xmlns:xlink="http://www.w3.org/1999/xlink" viewBox="0 0 884.8 852.3"><defs><style>.cls-1{fill:#d9d9d9;}.cls-2{mask:url(#mask);}.cls-3{fill:url(#Unbenannter_Verlauf);}.cls-4{fill:url(#Unbenannter_Verlauf_2);}.cls-5{fill:url(#Unbenannter_Verlauf_3);}.cls-6{fill:url(#Unbenannter_Verlauf_4);}.cls-13,.cls-14,.cls-21,.cls-7{fill:#fff;}.cls-8{fill:url(#Unbenannter_Verlauf_5);}.cls-9{fill:#29787c;}.cls-10{fill:#1e322d;}.cls-11{fill:#505436;}.cls-12{fill:#b28267;}.cls-13,.cls-14{isolation:isolate;}.cls-13{opacity:0.44;}.cls-14{opacity:0.62;}.cls-15{fill:#4f4a48;}.cls-16{fill:#e5a683;}.cls-17{fill:#333130;}.cls-18{fill:#877467;}.cls-19{fill:#282523;}.cls-20{fill:#2d251e;}.cls-21{stroke:#282523;stroke-miterlimit:6.84;stroke-width:1.37px;}.cls-22{fill:#e6e6e6;}.cls-23{fill:#afa4a0;}.cls-24{fill:#0474c6;}</style><mask id="mask" x="14.53" y="66.19" width="863.07" height="767.09" maskUnits="userSpaceOnUse"><g id="mask0_0_1" data-name="mask0 0 1"><circle class="cls-1" cx="430.6" cy="429.3" r="335.9"/></g></mask><linearGradient id="Unbenannter_Verlauf" x1="441.37" y1="73.65" x2="441.37" y2="817.44" gradientTransform="matrix(1, 0, 0, -1, 0, 883.64)" gradientUnits="userSpaceOnUse"><stop offset="0.41" stop-color="#fff"/><stop offset="0.44" stop-color="#fefdfc"/><stop offset="0.47" stop-color="#fcf8f2"/><stop offset="0.49" stop-color="#f8efe1"/><stop offset="0.51" stop-color="#f2e2c9"/><stop offset="0.54" stop-color="#ebd2ab"/><stop offset="0.55" stop-color="#e4c18c"/><stop offset="0.57" stop-color="#d5bc8d"/><stop offset="0.64" stop-color="#aeb08f"/><stop offset="0.7" stop-color="#8ea691"/><stop offset="0.77" stop-color="#759e93"/><stop offset="0.84" stop-color="#639894"/><stop offset="0.91" stop-color="#589595"/><stop offset="1" stop-color="#559495"/></linearGradient><linearGradient id="Unbenannter_Verlauf_2" x1="429.93" y1="314.28" x2="429.93" y2="741.06" gradientTransform="matrix(1, 0, 0, -1, 0, 883.64)" gradientUnits="userSpaceOnUse"><stop offset="0.12" stop-color="#fff"/><stop offset="0.23" stop-color="#fef8f1"/><stop offset="0.44" stop-color="#fbe5ce"/><stop offset="0.72" stop-color="#f7c695"/><stop offset="0.89" stop-color="#f4b16e"/></linearGradient><linearGradient id="Unbenannter_Verlauf_3" x1="434.05" y1="380.13" x2="434.05" y2="73.65" gradientTransform="matrix(1, 0, 0, -1, 0, 883.64)" gradientUnits="userSpaceOnUse"><stop offset="0" stop-color="#fff"/><stop offset="0.05" stop-color="#fdf2e7"/><stop offset="0.15" stop-color="#fad8b7"/><stop offset="0.16" stop-color="#e6d0b3"/><stop offset="0.19" stop-color="#bfc0ab"/><stop offset="0.23" stop-color="#9eb2a4"/><stop offset="0.27" stop-color="#84a79f"/><stop offset="0.31" stop-color="#6f9f9a"/><stop offset="0.35" stop-color="#609997"/><stop offset="0.41" stop-color="#589596"/><stop offset="0.49" stop-color="#559495"/><stop offset="0.58" stop-color="#418483"/><stop offset="0.74" stop-color="#226b66"/><stop offset="0.87" stop-color="#0f5c54"/><stop offset="0.96" stop-color="#08564e"/></linearGradient><linearGradient id="Unbenannter_Verlauf_4" x1="522.25" y1="357.62" x2="626.49" y2="589.94" gradientTransform="matrix(1, 0, 0, -1, 0, 883.64)" gradientUnits="userSpaceOnUse"><stop offset="0" stop-color="#f1f6f7"/><stop offset="0.12" stop-color="#e2ecee"/><stop offset="0.24" stop-color="#bdd5d7"/><stop offset="0.43" stop-color="#89b4b7"/><stop offset="0.61" stop-color="#5f9a9d"/><stop offset="0.76" stop-color="#42878b"/><stop offset="0.9" stop-color="#2f7c80"/><stop offset="1" stop-color="#29787c"/></linearGradient><linearGradient id="Unbenannter_Verlauf_5" x1="280.93" y1="166.93" x2="485.81" y2="845.61" gradientTransform="matrix(1, 0, 0, -1, 0, 883.64)" gradientUnits="userSpaceOnUse"><stop offset="0" stop-color="#fff"/><stop offset="0.02" stop-color="#fafcfc"/><stop offset="0.08" stop-color="#f3f7f8"/><stop offset="0.25" stop-color="#f1f6f7"/><stop offset="0.26" stop-color="#edf4f5"/><stop offset="0.29" stop-color="#c4dadc"/><stop offset="0.32" stop-color="#a0c3c5"/><stop offset="0.35" stop-color="#80afb1"/><stop offset="0.39" stop-color="#649da1"/><stop offset="0.43" stop-color="#4e9093"/><stop offset="0.49" stop-color="#3d8589"/><stop offset="0.55" stop-color="#327d81"/><stop offset="0.64" stop-color="#2b797d"/><stop offset="0.88" stop-color="#29787c"/></linearGradient></defs><g class="cls-2"><path class="cls-3" d="M441.4,810c205.4,0,371.9-166.5,371.9-371.9S646.8,66.2,441.4,66.2,69.5,232.7,69.5,438.1,236,810,441.4,810Z"/><path class="cls-4" d="M429.9,569.4c117.9,0,213.4-95.6,213.4-213.4S547.8,142.6,429.9,142.6,216.5,238.1,216.5,356,312.1,569.4,429.9,569.4Z"/><path class="cls-5" d="M83.5,503.5C106.6,676.5,254.7,810,434.1,810S761.5,676.5,784.6,503.5Z"/><path class="cls-6" d="M298.8,424.5c.9-3.5,55.6-31.8,55.6-31.8l32.7-12.3,16.8,1.7,30-12.3h9.7l22-17.7,10.6,2.7,23-20.3,17.6-7,10.6-8.8,16.7,3.5,24.8.9,17.6-12.4,22.1-5.3,23.8.9,30.9,22.1,15.9,9.7,11.5-1.8,7,9.7,9.7-1.7,8,8.8,12.3,1.8,6.3,9.7,41.5,28.2,33.4,20c4.4,15,8.7,30,13,45-5.2,10.4-10.5,20.9-15.7,31.4L790.7,512h-480C306.8,482.8,302.8,453.7,298.8,424.5Z"/><path class="cls-7" d="M372.3,403.1l8.4-10.6,11.7-10.7,5.1-6.7-.6,8.4-14,14.6Z"/><path class="cls-7" d="M389.6,412.7,421,394.2l14.6-12.4,11.8-11.2,39.2-21.3-20.2,17.4s-20.1,12.9-21.2,15.1S430,394.7,430,394.7Z"/><path class="cls-7" d="M520.5,378.8l-7.4,4.1-8.4,5.1-12.9,11.2-18.5,5.6-24.1,13.5-5,6.7,12.3-3.4,24.7-13.4,14.6-4.5,15.1-13.5,24.3-19.9-10.4,4.5Z"/><path class="cls-7" d="M593.8,374.4l2.8,5.5,24.3,12.7,15.4,1.6-32-15.4Z"/><path class="cls-8" d="M20.4,363.6l14.9-1.5,4.2,10.7,7.8,2.1-.7-6.4-3.5-7.1,25.5-14.9,7.8-3.5,10,2.1,15.5-14.9,10.7-3.5,19.1-16.3,18.4-8.4,8.5,2.6,10.6-1.3,5.2-5.9,15.8,12.5,10.6-.7L213.3,325l12.5,6.6,9.9-1.9,15.8,7.9,15.9,3.9,39.5,21.1L334,382.4l22.4,7.2,21.7-1.9,7.3,11.2,28.3,4.6L434.8,414l22.4,11.2,24.4,6,12.5,5.9,31,9.2,52.5,33,19.6,10.9,84.9,24,26.2,3.2H14.5q5.1-33,10-66.2Q22.4,407.4,20.4,363.6Z"/><path class="cls-9" d="M795.3,361.2l-15.4-4.6-32.6,13.6H717.7l-39.8,8.9L634,396.9l-45.6,9.5-35-1.2-16.6,4.1-32.1,1.8-19.5,19H464.4l-2.4,5.3L450.2,439l-3,8.9-6.5,5.3-13.1,14.2-15.4.7-9.5,8.3-29.6-1.8-16,13.6-22.5,6.6-11.3,12.4-10.1,4.2-13.6,2.3-19-6.5s-18.4-7.1-21.3-8.9-16.1-7.7-16.1-7.7L232,491.8l-8.3-4.2-32-2.9-5.4-8.3L159,468.7l-24.3-8.3-31.4-6.5s-43.9-4.8-45.7-4.2a67.9,67.9,0,0,1-7.7-.1c.8,25.2,2.9,50.5,3.5,75.7H786.6C788.9,470.6,790.4,415.9,795.3,361.2Z"/><path class="cls-10" d="M786.2,377.4l-23.9,2.3v34.6L745,420.5l-18.5,6.3-12.3,9.8-17.3,14.9-16.1,4.9-24.7,22.2H636.4l-8.7,9.9H610.4l-14.8,23.4-13.5,1.3-21,17.3L545,521.8l-29.6,3.7-9.9,21-8.7-4.9-16,4.9-16.1,13.6L440,567.5H608l14.5,4.2,165.5,2C787.1,507.9,793.2,441.8,786.2,377.4Z"/><path class="cls-7" d="M128.7,308.9l13.6,14.4,3.8,14.4,10.6,10.6,6.8,6.8,18.2,31.8,9.9,9.9,6.8,15.9,12.1,10.6-14.1-27-8.7-11.2-9.4-13.8-10.2-21.2-9.4-5.3-9.5-13.3L146.4,321l-14.5-13.5Z"/><path class="cls-7" d="M157.2,306.5s8.4,19.2,8.6,19.9,16.9,24.5,16.9,24.5l9.4,13.2,15.8,21,8.5,7.4,9.9,16.6,13.3,12.8,20.4,25s-3.6-11.5-4.6-12.8l-31.9-41-10-15.9-17.3-19.1L190.1,340l-13.6-12L160,304.8Z"/><path class="cls-7" d="M223.2,331.5l16.1,27.3,13.3,20.9,11.7,17.7,13,15.8,18.1,12.2,13.3,4.1,18.9,16.6-3.6-6.6-26.3-21.7-17.6-12.4-14.8-24-24.2-32.3-9-16.5Z"/><path class="cls-11" d="M782.7,484.1,770.3,490l-17.2,8.8L737,501.7,712.2,515H692.5l-8.7,5.8H666.5l-14.8,14.1-13.6.7-21,10.3-16-5.1L571.5,543l-9.9,12.4-8.6-2.9-16.1,2.9-16,8.1-24.7,4.4h87.7l38.4,6.4,56.2,3.2,108.5-.3c4-31.7,5-63.3,5.3-95Z"/><path class="cls-12" d="M624.5,583.6a102.6,102.6,0,0,0,24.7,3.8,74.6,74.6,0,0,1,10.5,1c6.5,1,11.1,2.1,12.4,2.4,12.1,2.9,26.5-.6,44.4-1.6,7.4-.4,15.2,0,30.9,1,23.4,1.4,35.4,3.6,48.8,5a318.9,318.9,0,0,0,64.8,0,123.1,123.1,0,0,0,9-18.2,119.2,119.2,0,0,0,7.6-33.4c-43.3,29.9-91.1,15.8-154.4,19.9-43.1,1.6-40.2,4.6-60.1,3.1-29.9-4.7-86.8-5.6-118.4,4.1C579,574,600.4,572.9,624.5,583.6Z"/><path class="cls-13" d="M129.6,109.1H300.2A16.9,16.9,0,0,0,293.7,99a17.3,17.3,0,0,0-18.2-.5c-.8-1.9-6.1-13.9-19-17.8s-26.7,1.5-35.1,13.4A27.2,27.2,0,0,0,202,85.2c-13.9-.3-22,10.7-22.7,11.7a14.3,14.3,0,0,0-23,6.9,17.3,17.3,0,0,0-13.7-4.5C133.7,100.6,129.8,108.5,129.6,109.1Z"/><path class="cls-14" d="M610.3,131.5H753.6a7.3,7.3,0,0,0-.6-3,11.4,11.4,0,0,0-1.8-2.5,7.8,7.8,0,0,0-6.7-1.8,14.4,14.4,0,0,0-5.4-9.1c-4.9-3.5-12-3.3-17.6.6a29,29,0,0,0-40.5-5.9,29.9,29.9,0,0,0-3.2,2.9,15.9,15.9,0,0,0-21.9,4.9,15.7,15.7,0,0,0-1.8,4.2,13.1,13.1,0,0,0-11.5-1.9,12.7,12.7,0,0,0-7.3,6.7,26.3,26.3,0,0,0-10.4-1.2A26.7,26.7,0,0,0,610.3,131.5Z"/><path class="cls-10" d="M754.6,205.2c-1-.5-3.8,1.9-3.9,4.5s.9,2.7.3,3.5-1.6.3-2.3,1.2a2.4,2.4,0,0,0-.6,1.1,4.8,4.8,0,0,0,0,1.2c.1.4.3,1.3,3.4,3.7s2.1,1.6,2.1,1.9-3.5,1.3-5.9-.2-1.9-2.6-2.8-2.4-1.7,1.9-1.3,3.2,1.9,1.8,3.1,2.2c3.2,1.1,5,0,6.4,1.4s1.1,2,.7,2.4-2.9-1.6-6.6-1.5c-.6,0-1.9.1-2.2.8s.7,1.8,1.2,2.4a6.2,6.2,0,0,0,2.1,1.5c2.4,1,4.2-.8,5.2.1a4.1,4.1,0,0,1,.4,2.2,3.1,3.1,0,0,1-1.1,1.9c-1.6,1.2-4,0-4.4-.3-2-1.1-2.7-2.8-3.4-2.6s-.1,1.9-1.1,3-2.2.2-4.1,1.2-2.7,1.9-2.5,3.2,1.9,1.3,2.8,3.5.2,1.5.8,1.9,1.5,0,3.7-.2,3.7.4,4.8-.4.9-1.4,2-1.8a2.1,2.1,0,0,1,1.9,0c1.6.8,2.2,5.5.3,7.2s-5.9,0-14.7-.4c-.7,0-2,0-2.4.7s.5,3.3,2.2,4.5,1.9,1.3,9.8,1.4c2.5,0,3.5,0,3.6.4s-2.3,2.6-5.3,3-4.6-2-9.2-1.7a40.5,40.5,0,0,0-5,1.2c-1.3.3-2,.6-2.1,1s2.1,2.5,2.2,2.6,2.1.5,3.5,1.3,1.8,2.7,3.3,3,2.3-1,3.1-.5,0,1.7.8,2.3,3.1-.4,3.9-.9,2.4-1.9,3.6-1.8a2.8,2.8,0,0,1,2,1.2,2.6,2.6,0,0,1,.7,1.9,3,3,0,0,1-.5,1.9c-.6.8-1.5.8-3.3,1.2s-3.1,1.2-5,1.6c-4.4,1-5.9-1-11.9-.4-3.1.4-3.7,1-3.9,1.5s1.3,1.5,2.2,4.1.4,2.2,1.3,3,.7.2,1.7.8,1.6,1.3,2.6,1.7a4.4,4.4,0,0,0,3.7-.4c1.1-.7,1.2-1.6,1.8-1.6s.8,1.6,2.4,2.8a4.5,4.5,0,0,0,3,.9c1.8-.1,2.2-1.7,4.3-1.9a2.9,2.9,0,0,1,2.2.4c1.1.9.9,3,.4,4.3a5.5,5.5,0,0,1-1.8,2.2,9,9,0,0,1-2.4,1.2c-2.5.8-3.2-.3-6.2.5s-1.9,1.1-3.4,1.3-4.3-1.8-6.4-1-1.3,1.4-2.8,1.7-2.7-.3-2.8,0,2,1,2.9,3.1.1,1.8.7,2.3,2.6-1.1,4.2-.5,1.2,2.6,2.4,2.8,2.8-3.1,5-2.9,1.3,1.4,2.9,1.7,2.4-1.1,4.4-1a4.5,4.5,0,0,1,3.2,1.4,6.3,6.3,0,0,1-.2,8.1c-1.4,1.5-4,1.5-9.2,1.4a25.5,25.5,0,0,1-6.7-.7,16.8,16.8,0,0,0-5.7-1.6c-1.2,0-2.8,0-3.4,1a2.6,2.6,0,0,0-.2,1.5,3,3,0,0,0,.6,1.4c.9,1.2,2.1.8,2.7,1.8s-.3,1.7.3,2.4,1.8.5,3.7.7,1.9.7,4.2,1.1,5,1,7.2-.2,1.3-1.4,2.6-1.9a5,5,0,0,1,3.8.3c2.7,1.6,2.9,6.4,1.1,8.1s-2.8,0-7.3.6-3.4,1.6-6.8,1.9a18.9,18.9,0,0,1-9.7-.8c-.6-.2-1.5-.7-2.2-.3s-.6,2.4-.3,3.5,1.3,1.7,2.3,3.8.4,1.9.9,2.4,3.8-.7,5.5.4.6,3.3,1.9,3.9,1.3.2,5.9-2.5c2.6-1.5,3.7-2.2,5.2-1.9a2.2,2.2,0,0,1,1.3.4,3.4,3.4,0,0,1,.9.8c.8,1.4-.3,3.4-1.1,4.4s-3.4,2-7.2,2.6-7.6,1.2-10.4.4-2.6-.9-3.5-.2a3.2,3.2,0,0,0-.8,3.7c.7,1.9,3.1,2.5,7.5,3.5s8.6,2,11.1.3,2.6-3.1,3.6-2.8.9,1.2,1.3,2.5.8,3.4.2,4.4-1.3,1.3-9.7,1.5a36.2,36.2,0,0,0-4.7.2c-3.8.6-4.5,2-7.4,1.9s-3.1-1-4.2-.4a4.3,4.3,0,0,0-1.1,5.2c.7,1.4,1.9,1,4.2,2.8s1.8,3,3.5,3.8,5.7-1.6,7.5,0,.4,2.2,1.6,3.1,1.2.6,6.5-.7c2-.5,2.2-.6,2.7-.4,2,.7,3.4,5,2.1,7.8s-6.4,4.1-13,5.2a36.3,36.3,0,0,1-7.3.8s-10.7-.3-12.9.4l-4,2.1c-3.6,1.8-4.2,2-4.5,2.8a4.8,4.8,0,0,0,3.3,5.2c2.6.9,4.4-2,6.5-.9s1.7,2,3.6,2.5l.9.3,2.5,1.1c2.2,1,3.2,1.8,4.3,1.9,2.6.1,3.1-3.3,6.1-3.4s2.4,1.2,4.5.9a5.4,5.4,0,0,0,2.7-1.1,6.7,6.7,0,0,1,4.3-1.6,7.5,7.5,0,0,1,6.1,3.5c-14,1.8-22.3,5.4-27.5,8.5l-1.5.8c-10.9,5.4-25.4-6.2-26.5-4.4s1.3,1.7,3.2,6.1a5.7,5.7,0,0,0,1,1.9c1.6,1.6,3.6,1.3,5.6,1.7,4.8.9,4.4,4.7,8.9,5.6s4.4-1.9,9-1.1,4.9,2.6,7.4,1.8,2.2-2.3,3.9-2.6,2.8,1.7,5.6,3.3,7.1,2.8,9.2,1,.3-6.2,2.9-8a4.3,4.3,0,0,1,3.1-.8l1.2.4c2.1,1.2,9.7,3.1,11.9,3.6s12.7,2.7,16.3-2.2c2.2-2.9,2.2-8.5-.7-10.9-5.2-4.3-16,6.3-23.5,1.4a11.9,11.9,0,0,1-4.4-6.9,13.2,13.2,0,0,1,1.5-8.9c1.1-1.9,2-3.5,3.7-4s3.4,2.8,8.1,3.8c3.1.7,5.5-.3,6.9,1.4s.4,1.5,1.2,2,4.7.3,5.8-.1h.2c3.5-1.1,3.9-3.2,5.9-3.4s1.4.7,3,.6a6,6,0,0,0,3.3-1.8c2-2,3.2-5.7,1.9-7.3s-6.1,1.1-14.5.1a10.3,10.3,0,0,0-4.9-1c-4.4-.1-17.5-.5-21.4-6.5a25.9,25.9,0,0,1-2.6-6.7s7.9-2.2,10.6.8c.7.9.6,1.6,1.5,2.1s2.9-.5,4.1.4.4.9,1.1,1.3,2.4-.7,5.2-.6h.5c1.2-.3,1-2.2,2.4-3.3s2.6-1.2,2.7-1.9-1.4-2-2.5-2.8-3.4-1.5-3.4-2,2.8-.9,2.8-1.7-1.5-1.5-3.3-1.9c-3.6-1-5.6,0-8.7,0-.6,0-7.4,0-11.4-4.3-2.3-2.4-3.5-6-2.6-6.8s3.4.3,5,1.6,1,1.6,2.2,2.3a11.7,11.7,0,0,0,5.5,1.3,8.1,8.1,0,0,0,3.1,0c1.6-.5,3.3-1.9,3.3-3.5s-1.9-2.5-2.7-2.9c-3.1-1.7-4.9-.2-9.2-1.5a11.9,11.9,0,0,1-4.2-2.1c-2.7-2.4-4.1-6.7-2.8-8s3.2-.1,3.7,0,2,1.4,3.8,2.7a12.3,12.3,0,0,0,4.9,2.3c.8.2,4.7,1,6.5-.9s.5-1.6,1.5-2.4,3.1-.2,4.1-1.3a2.9,2.9,0,0,0-.6-3.7c-.9-.6-2,0-3.7.5s-7.1,2-11.6-.2c-1.5-.7-1-1-3.4-2.5s-5-1.6-6.3-3.1-1.2-7.6.4-8.1,1.3.7,3.8,1.3,1.8.1,2.7.4,1.9,3.1,3.9,4.9a9,9,0,0,0,7.5,1c1.9-.6,2.3-1.5,4.7-1.9s1.7,0,3.3-.3,3.3-.7,3.8-1.8-.3-1.9-1-3a8,8,0,0,0-3.5-3.3c-1.6-.6-1.9-.2-3.9-.6s-2.9-1.3-6.1-2.9a26.2,26.2,0,0,0-5.2-2.2c-5.2-1.6-7.4.2-9.1-1.6a4.8,4.8,0,0,1-.4-6.2c1.6-1.6,4.7-.7,5.8-.3s2.3,1.7,4.3,2.2,4-1.2,7-.5,3.1,2.3,4.4,1.8,1.1-1.5,3-3.4,2.7-1.7,2.6-2.3-4.1-1.8-5-1.9c-4.2-.6-5.4.1-9.9,0s-7.2-.3-9.5-2.4a10.2,10.2,0,0,1-2.6-4c-.7-1.6-1.9-4-1-4.8s3.7,0,5.4,1.6.6,1.4,1.5,2.2a6.2,6.2,0,0,0,6.6,1.3c1.2-.5.9-1.1,2.2-1.7s3.1.3,5.4-.5c.3-.1,2.7-.9,3-2.6s-1.6-3.4-1.9-3.6c-4-3.4-9,1-17.6-1.5-5-1.4-5.9-3.6-6.2-4.3s-.5-1.5.1-2.3,3.3-.3,4.8.1,3.1,1.7,5.2,2,2.2-.4,4.8-.7c4.7-.5,5.9,1.8,8.8.7s3.6-2.4,3.5-4.2-3-3.1-3.4-3.3c-3.3-1.4-5.4.4-12.4,1.2s-8-.2-9-.9-2.7-3.6-2.2-4.3,2.7,1.1,6.3.7a14.3,14.3,0,0,0,6.2-2.4l1.9-1.2c3.3-1.9,5.1-.8,7-2.4s2.3-3.1,1.7-4.1-3.4-.9-8.7-.5c-8.9.7-15,1.2-15.9-.9a2.3,2.3,0,0,1,.7-2.5c.9-.9,2.2-.8,7-.1s4.9.6,5.9-.2A2.6,2.6,0,0,0,771,250c-1.1-2.5-10.1,1.2-13.4-2.8-.9-1.2-1.4-3.1-.7-3.9s5.5.8,11.7.7a4.4,4.4,0,0,0,2.9-.8c1.3-1,2.2-3,1.5-3.9s-1.3-.4-4.2-.3c-5.3.3-6.9,0-8.1-.7s-2.4-1.6-2.2-2.2,4.5,0,5-1.2-1.1-2.3-2.6-3-2.3-.5-2.3-.8a14.4,14.4,0,0,1,4.1-1.5c3-.8,4.2-.9,4.2-1.3s-1.7-.8-5.2-2.4-3.1-1.7-3.1-1.8,4.2,1.2,6-.6a2.7,2.7,0,0,0,.5-3.1c-1.1-1.7-5-.5-5.4-1.6s2.2-1.5,2.5-3.5a4.7,4.7,0,0,0-2.3-4.3c-1.8-1.3-3.1-.5-4.2-1.7S755.4,205.5,754.6,205.2Z"/><path class="cls-10" d="M755.9,215.7l-5.4,213.6h15.6Z"/><path class="cls-10" d="M144.5,269.9c.9-.4,3.7,1.9,3.9,4.5s-.9,2.7-.3,3.5,1.6.3,2.3,1.2a2.7,2.7,0,0,1,.5,1.1,4.9,4.9,0,0,1,.1,1.2c0,.4-.4,1.4-3.4,3.8s-2.2,1.6-2.1,1.8,3.5,1.3,5.8-.1,2-2.6,2.9-2.5,1.7,1.9,1.3,3.3-1.9,1.7-3.2,2.2c-3.1,1.1-4.9,0-6.3,1.4s-1.1,1.9-.8,2.3,3-1.5,6.6-1.4c.7,0,1.9.1,2.2.8s-.6,1.7-1.1,2.3a5.1,5.1,0,0,1-2.1,1.5c-2.4,1-4.2-.7-5.2.2a3,3,0,0,0-.4,2.1,3.1,3.1,0,0,0,1.1,1.9c1.5,1.2,3.9,0,4.4-.3,2-1,2.6-2.8,3.3-2.6s.1,1.9,1.2,3,2.2.2,4,1.2,2.7,1.9,2.6,3.2-1.9,1.3-2.8,3.5-.3,1.6-.8,2-1.6,0-3.8-.3-3.6.4-4.8-.4-.8-1.4-1.9-1.8a2.1,2.1,0,0,0-1.9,0c-1.7.8-2.2,5.5-.3,7.2s5.8,0,14.6-.4c.8,0,2,0,2.5.7s-.5,3.3-2.2,4.5-1.9,1.3-9.8,1.5c-2.6,0-3.6,0-3.7.3s2.4,2.6,5.3,3,4.6-1.9,9.2-1.7a47,47,0,0,1,5.1,1.2c1.3.4,1.9.6,2,1s-2,2.5-2.2,2.6-2.1.5-3.5,1.3-1.8,2.7-3.2,3-2.3-1-3.1-.5,0,1.7-.8,2.3-3.1-.4-4-.9-2.3-1.9-3.5-1.8a2.2,2.2,0,0,0-2.1,1.2c-.1.9,1.6,2.1,3.2,2.5s2.4-.3,4.5,0,3.6,1.5,3.4,1.9-1.7-.3-4.2.3-2,1.1-3.6,1.3-3.4-.8-3.8-.3.4,1.9,1.6,2.6,3.6-.7,7-1.7,4.4.3,11.9-.4c4.4-.3,7.3-1.1,7.5-.4s-5.4,2.9-5.8,6a5.8,5.8,0,0,1-1.3,3c-.5.4-.6.2-1.7.8s-1.6,1.3-2.6,1.7a4,4,0,0,1-1.9.2,3,3,0,0,1-1.8-.6c-1.1-.7-1.1-1.7-1.8-1.7s-.8,1.7-2.4,2.9a4.5,4.5,0,0,1-3,.9c-1.8-.1-2.2-1.7-4.3-1.9a2.9,2.9,0,0,0-2.2.4c-1.1.9-.9,3-.4,4.3a9.6,9.6,0,0,0,1.8,2.2,7.5,7.5,0,0,0,2.5,1.3c2.4.8,3.2-.3,6.2.5s1.9,1.1,3.4,1.3c3,.4,4.2-1.8,6.4-1s1.3,1.4,2.8,1.7,2.7-.3,2.8,0-2.1,1.1-3,3.1-.1,1.8-.6,2.3-2.6-1.1-4.2-.5-1.3,2.5-2.4,2.8-2.9-3.1-5.1-2.9-1.3,1.4-2.9,1.7-2.4-1.1-4.3-1a4.2,4.2,0,0,0-3.2,1.4,6.3,6.3,0,0,0,.1,8.1c1.5,1.5,4,1.5,9.2,1.4a21.5,21.5,0,0,0,6.7-.7,17.3,17.3,0,0,1,5.8-1.6c1.1,0,2.7,0,3.3,1a2.6,2.6,0,0,1,.2,1.5,2.2,2.2,0,0,1-.6,1.4c-.9,1.2-2.1.8-2.6,1.9s.2,1.6-.3,2.3-1.8.5-3.8.7-1.8.7-4.2,1.1-4.9,1-7.1-.2-1.3-1.4-2.7-1.8a5.5,5.5,0,0,0-3.8.2c-2.6,1.6-2.9,6.4-1.1,8.1s2.9,0,7.3.6,3.4,1.6,6.9,2a19.6,19.6,0,0,0,9.6-.9c.6-.2,1.6-.7,2.2-.3s.7,2.4.3,3.5-1.2,1.7-2.2,3.8-.5,1.9-1,2.4-3.8-.7-5.5.4-.6,3.3-1.9,3.9-1.2.2-5.9-2.5c-2.6-1.5-3.7-2.2-5.2-2l-1.2.4a4.5,4.5,0,0,0-1,.9c-.8,1.4.3,3.3,1.1,4.4s3.4,2,7.3,2.6c5.5.9,8.2,1.4,10.3.4s3.9-3.9,5.2-3.4,1.3,3.1,1.1,4.6a8.2,8.2,0,0,1-1.5,3.6,8.7,8.7,0,0,1-2.7,2.7c-.9.6-3.6,2.3-6,1.4s-1.9-2.9-3.7-3.5-4.1,2.5-6.6,1.8-2.6-3.1-3.7-2.8-.9,1.2-1.2,2.5-.9,3.4-.3,4.4,1.4,1.3,9.8,1.5a37.7,37.7,0,0,1,4.7.2c3.7.6,4.5,2,7.4,1.9s3.1-1.1,4.2-.4a4.5,4.5,0,0,1,1.1,5.2c-.8,1.4-2,1-4.2,2.8s-1.8,3-3.5,3.7-5.7-1.5-7.5,0-.4,2.3-1.6,3.2h-.1a7.4,7.4,0,0,1-3.3.3,6.4,6.4,0,0,1-3.1-1.1c-2.6-1.9-2.3-5-3.1-4.9s-3.1,5.5-1,9.9,5.1,4.8,12.3,7.6c5.4,2.2,8.1,3.1,10.1,2.9,4.3-.4,6.3-2.8,10.1-1.6l1.3.7,2.7,1.3c2.7,1.3,6.3-1.6,6.9-.9s-1.7,5.1-5.9,7.4a70.1,70.1,0,0,1-9.8,3.2l-1,.2-2.4,1.1-4.3,1.9c-2.2.6-5-.4-10.6-2.5l-2.8-1c-.2-.2-2.7-2.5-4.2-1.7s-1.5,3.7-.7,5.6c2.6,5.9,17.2,7.3,28.3,5.4,4.6-.7,8.8-2,10.1-.2s-1,5.5-1.9,6.9-2.4,2.5-2.7,2.5-1.1-.9-2-1.1-2.3,1-5,3.1-3.5,2.6-4.5,2.6-2.9-3.1-5.5-3.1-1.5.8-2.7.7-3-3.3-6.1-4.7c-.7-.3-.8-.2-4.3-.4-7.4-.5-9.5-1-13.4,0l-1.1.4c-4,1.9-2.9,4.6-7.7,7.7s-9.6,4.5-12.1,2-1.6-6.3.4-9.3c3.4-5,9.6-3.1,15.3-8.5a12.6,12.6,0,0,0,4.5-6.8,13,13,0,0,0-1.5-8.9c-1.1-1.9-2-3.6-3.7-4.1s-4.1,3.8-8.1,3.8c-1.9,0-2.1-.8-4.2-.6a11.2,11.2,0,0,0-5,1.8c-1.8,1.2-3.1,2.6-4.8,2.2h-.1c-2.1-.7-2.9-2.4-4.2-3.5s-3-.3-4.7-1.9a9.1,9.1,0,0,1-1.3-2.6,7.6,7.6,0,0,1-.1-3c.2-1.2.4-2.7,1.4-3.4s4.7,1.6,9.2,2.6c2.6.6,5.2.1,10.3-.9s13.9-2.7,16-6.6a32.1,32.1,0,0,0,2.6-6.7s-7.9-2.2-10.6.8c-.7.9-.6,1.6-1.5,2.1s-2.8-.5-4.1.4-.4.9-1.1,1.3-5.8-1.9-6.2-1.5.4.8.4.8a6.4,6.4,0,0,0-2.3-3.3c-2-1.4-3.5.4-6.4-.6s-3.1-2.1-4.8-4.3-2.1-2.6-2-3.4,5.1-3.2,8.4-3.3,4,.8,8.5,1.3a63.2,63.2,0,0,0,8.7,0c.6,0,7.4,0,11.4-4.3,2.3-2.4,3.5-6,2.5-6.8s-3.3.4-4.9,1.6-1.1,1.5-2.2,2.4-1.7,1.1-6.1,1.5a32.1,32.1,0,0,1-5.4.2c-7.3-.5-15.8-7.4-15.1-8.9s6.6,1.8,17.3,2a36.1,36.1,0,0,0,9.2-1.5,11.1,11.1,0,0,0,4.2-2.1c2.7-2.4,4.1-6.6,2.8-7.9s-3.2-.2-3.6,0-2,1.4-3.8,2.7c-3.7,2.7-4.7,2.4-4.9,2.3s-.4-.5-.9-.9-4,1-5.6,0-.4-1.4-1.5-2.4-2.5-.5-4.1-1.3-3.9-4-3.3-4.7,2.8.2,7.6,1.5l.7.2c1.9.5,7,1.6,10.9-.3,1.5-.7,1-1,3.4-2.5s5-1.6,6.3-3.1,1.2-7.7-.4-8.2-1.3.7-3.8,1.4-1.8.1-2.7.4-2.3,4.5-3.9,4.8-1.8-1.7-3.4-1.7-2.2,2.6-4.1,2.8-2.5-1.6-4.7-1.9a22.6,22.6,0,0,1-3.3-.4,10.1,10.1,0,0,1-3.8-1.7c-1.3-1-2.9-2.2-2.6-3.2s.4-.4,4.1-1.9l3-1.2,1-.3c.8-.2,1.4,0,2.9-.3s2.9-1.3,6.1-2.9a26.2,26.2,0,0,1,5.2-2.2c5.2-1.6,7.4.2,9.1-1.6a5,5,0,0,0,.4-6.2c-1.6-1.6-4.7-.7-5.8-.3s-2.3,1.6-4.3,2.2-4-1.2-7-.5-3,2.2-4.4,1.8-1.1-1.5-3-3.4-2.7-1.7-2.6-2.3,4.1-1.8,5-1.9c4.2-.6,5.4.1,9.9,0s7.2-.3,9.5-2.4a10.2,10.2,0,0,0,2.6-4c.8-1.6,1.9-4,1-4.8s-3.7,0-5.3,1.6-.7,1.4-1.6,2.2a6.2,6.2,0,0,1-6.6,1.3c-1.2-.6-.9-1.1-2.2-1.7a18.7,18.7,0,0,0-5.3-.5c-3.9.2-8.1-4.1-7.6-5.5s1.7-.7,6.4-.7c9.8,0,13.6-.3,17.6-1.5s6-3.6,6.2-4.3a2.3,2.3,0,0,0-.1-2.3c-.8-1-3.2-.3-4.8.1s-3.1,1.7-5.1,2-2.3-.5-4.9-.7c-4.6-.5-5.9,1.8-8.8.7s-3.8-2.9-3.4-4.2,2.3-1.5,3.4-1.7a13.5,13.5,0,0,1,4.9.2c2.5.2,2.3-.3,7.5-.6s7.2.4,8.9-.9,2.8-3.6,2.2-4.3-2.6,1.1-6.2.7a17.4,17.4,0,0,1-6.2-2.4c-1.2-.7-1-.8-1.9-1.3-3.3-1.8-5.2-.8-7-2.3s-2.3-3.1-1.7-4.2,3.4-.8,8.7-.4c8.8.7,15,1.2,15.9-.9a2.6,2.6,0,0,0-.7-2.6c-.9-.8-2.2-.7-7,0s-4.9.6-5.9-.2a2.5,2.5,0,0,1-1.1-1.2,2.2,2.2,0,0,1-.1-1.6c1-2.5,10,1.2,13.3-2.8.9-1.2,1.4-3.2.7-3.9s-5.5.8-11.7.7a4.3,4.3,0,0,1-2.9-.8c-1.3-1-2.2-3-1.5-3.9s1.3-.4,4.2-.3c5.3.2,6.9,0,8.1-.7s2.4-1.6,2.3-2.2-4.6,0-5.1-1.2,1.1-2.3,2.6-3.1,2.3-.4,2.4-.7a13.5,13.5,0,0,0-4.2-1.6c-3-.8-4.2-.8-4.2-1.3s1.7-.8,5.2-2.4,3.1-1.7,3-1.7-4.2,1.1-5.9-.7a2.7,2.7,0,0,1-.5-3.1c1-1.7,5-.5,5.3-1.5s-2.2-1.6-2.5-3.6a4.8,4.8,0,0,1,2.3-4.3c1.8-1.3,3.1-.5,4.2-1.7S143.6,270.3,144.5,269.9Z"/><path class="cls-10" d="M668.8,318.2c.4.1-.1,1.3.5,2.9a4.1,4.1,0,0,0,2,2.6c.7.4,1.2.3,1.6.8a1.8,1.8,0,0,1,.3,1.6c-.2.7-1,.5-1.7,1.5s-.2.6-.6,1.1-1.6,1.1-1.4,1.3a5.5,5.5,0,0,0,4-.1c.9-.4,1.6-.8,2.1-.5a.7.7,0,0,1,.6.4,1.4,1.4,0,0,1,.2.6c0,.9-1.6,1.3-2.2,1.6-2.2.8-3.4,0-4.4,1s-.8,1.2-.5,1.5a1.7,1.7,0,0,0,1.2.5,2.9,2.9,0,0,0,1.3-.1c.9-.4,1.1-1.2,2.1-1.4a1.4,1.4,0,0,1,1.5.6c.2.4-.4,1.2-.8,1.5a3.6,3.6,0,0,1-1.4,1.1c-1.7.7-2.9-.5-3.6,0a2,2,0,0,0-.3,1.5,2.1,2.1,0,0,0,.7,1.3c.8.6,1.8-.7,3.1-.2s.7.7,1.4.8,1-.4,1.8-.5a4,4,0,0,1,2.8.8c.7.4,1.9,1.3,1.8,2.2a3.3,3.3,0,0,1-.7,1.6,3,3,0,0,1-1.3.9c-.6.1-.7-.1-1.3,0s-1.1.7-1.9,1.1a2.5,2.5,0,0,1-1.7.3,3.3,3.3,0,0,1-1.6-.5c-.6-.5-.6-1-1.3-1.3a1.7,1.7,0,0,0-1.4,0c-1.1.6-1.5,3.8-.2,5s4.1,0,10.2-.2c.5,0,1.4,0,1.7.4s-.4,2.3-1.6,3.1-1.3.9-6.8,1c-1.7,0-2.4,0-2.5.3a5.4,5.4,0,0,0,1.6,1.4,5.6,5.6,0,0,0,2.1.6c2.6.4,3.1-1.3,6.4-1.1a22.1,22.1,0,0,1,3.5.8c.9.2,1.3.4,1.4.7s-1.4,1.7-1.5,1.8-1.5.3-2.5.9-1.2,1.9-2.2,2.1-1.6-.7-2.2-.4,0,1.2-.5,1.6-2.2-.3-2.8-.7-1.6-1.3-2.4-1.2l-.8.2-.7.6a2,2,0,0,0-.4,1.3,2.3,2.3,0,0,0,.4,1.4c.5.5,1.1.5,2.3.8s2.1.8,3.5,1.1c3,.7,4-.7,8.2-.2,2.2.2,2.6.7,2.7,1s-.9,1-1.5,2.8-.3,1.6-.9,2.1-.5.1-1.3.5l-.7.5c-.5.4-.5.5-.7.5s-.7-.5-1.4-.6-.9.7-1.5.6-.8-1.2-1.3-1.2-.6,1.1-1.6,2a3.9,3.9,0,0,1-2.1.6c-1.3-.1-1.6-1.1-3-1.3a2.3,2.3,0,0,0-1.6.3c-.7.6-.6,2-.2,3a5.3,5.3,0,0,0,1.2,1.4,4.6,4.6,0,0,0,1.7.9c1.7.5,2.2-.2,4.3.4s1.3.7,2.4.9,2.9-1.3,4.4-.7.9.7,1.4.9l.5.3c.6.2.9.3.9.6s-.5.6-.9,1.5-.2,1.3-.5,1.6-1.8-.8-2.9-.3-.9,1.7-1.7,1.9-2-2.1-3.5-2-.9,1-2,1.1-1.6-.7-3-.6a3.6,3.6,0,0,0-2.3.9,4.7,4.7,0,0,0,.1,5.7c1.1,1.1,2.8,1,6.4.9a14.8,14.8,0,0,0,4.7-.5,11.2,11.2,0,0,1,4-1c.8,0,1.9,0,2.3.7a1.6,1.6,0,0,1,.2,1,1.9,1.9,0,0,1-.5,1c-.6.8-1.4.5-1.8,1.2s.1,1.2-.2,1.7-1.3.3-2.6.5-1.3.5-2.9.8a7.8,7.8,0,0,1-5-.2c-.9-.5-.9-1-1.8-1.3a3.6,3.6,0,0,0-2.7.2,4.1,4.1,0,0,0-.7,5.6c.9.9,2,0,5,.4a24.3,24.3,0,0,1,4.8,1.4c1.7.7,1.8.9,2.5.9s1.6-.5,4.2-1.5c.8-.4,1.2-.5,1.5-.2s.5,1.5.2,2.4-.9,1.1-1.5,2.6-.3,1.3-.7,1.7-2.6-.5-3.8.2-.6,2.6-1.3,2.8-.8-.6-2-1.2a14.2,14.2,0,0,0-2.1-.6c-2.1-.6-2.4-1.5-3.6-1.3l-.9.2-.7.6c-.5,1,.2,2.3.8,3.1s2.4,1.4,5.1,1.8,5.2.8,7.1.3,1.8-.6,2.5-.2a2.4,2.4,0,0,1,.7,1.2,3.2,3.2,0,0,1-.1,1.4c-.7,1.8-3.3,2.5-5.3,2.4s-1.8-.8-3.5-.7-2.8,1.4-4.2.9-1.7-2.1-2.5-1.9-.6.8-.9,1.7-.5,2.4-.1,3,.9,1,6.8,1.1h3.2c2.6.4,3.1,1.4,5.1,1.4s2.2-.8,2.9-.3a2.9,2.9,0,0,1,.8,3.6c-.5.9-1.4.7-2.9,1.9s-1.3,2.1-2.4,2.6-4-1-5.3,0-.2,1.6-1,2.2-.9.4-4.6-.5c-1.4-.3-1.6-.4-1.9-.3s-2.3,3.5-1.4,5.4,2.2,1.6,9,3.7,5.5,2,7,1.9c3-.2,4.4-1.9,7-1.1l2.8,1.4c2.5,1.3,2.9,1.5,3.1,2s-.9,2.7-2.2,3.6-3.5.3-7.1,1.1l-2.3,1-3,1.3c-1.5.4-3.5-.3-7.4-1.7l-1.9-.8a4.4,4.4,0,0,0-2.9-1.1,5,5,0,0,0-4.2,2.5c9,6.4,15.5,7.1,20.1,6.4s8.2-2.3,9.5-.5,0,3-.6,3.9c-1.7,2.9-6.2,4.1-9.8,3.3s-4.2-3-8.7-3.6a29.4,29.4,0,0,0-4.2,0c-7.8,0-8.4-.5-10.1.3s-2,3.1-5.3,5.3-6.7,3.1-8.4,1.4-1.1-4.4.2-6.4,6.7-2.2,10.7-5.9a9.2,9.2,0,0,0,3.1-4.8,8.9,8.9,0,0,0-1.1-6.2c-.7-1.3-1.3-2.5-2.5-2.8s-2.7.9-5.7,2.6-6,3.4-9.6,2.4c-.4-.2-3.1-1-3.6-3.1s1.9-4.3,3.8-5.2a7.7,7.7,0,0,1,3.4-.7c3.1,0,12.1-.3,14.8-4.5a18.3,18.3,0,0,0,1.8-4.6s-5.5-1.6-7.3.5c-.5.6-.4,1.1-1.1,1.4s-1.9-.3-2.8.3l-.3.2a2.8,2.8,0,0,1-.5.8c-.4.5-1.8.1-3.4-.3l-.6-.2c-.9-.4-.7-1.5-1.5-2.3s-1.8-.8-1.9-1.3.9-1.4,1.7-1.9,2.4-1.1,2.4-1.5-2-.6-2-1.1,1.1-1,2.3-1.3,3.9,0,6,0c.5,0,5.2,0,8-3s2.4-4.2,1.7-4.7-2.3.3-3.4,1.2-.7,1-1.6,1.5a8.5,8.5,0,0,1-3.8.9h-2.2c-1.1-.3-2.3-1.3-2.3-2.4s1.4-1.8,1.9-2c2.1-1.2,3.4-.2,6.4-1.1a7.1,7.1,0,0,0,2.9-1.4c1.9-1.7,2.8-4.7,1.9-5.6s-2.2-.1-2.5,0-1.4,1.1-2.6,1.9a8.9,8.9,0,0,1-3.4,1.6c-.6.1-3.3.7-4.6-.7s-.3-1.1-1-1.6-2.2-.2-2.8-.9a2.1,2.1,0,0,1,.3-2.6c.7-.4,1.5,0,2.7.4s4.9,1.4,8,0c1-.6.7-.8,2.4-1.8s3.4-1.1,4.3-2.2.9-5.3-.2-5.6-.9.5-2.7.9l-1.5.2h-.3c-.7.2-2.5,1.8-3.4,2.4a9.2,9.2,0,0,1-2.8.5,43.4,43.4,0,0,1-5.1-.1l-1.5-.2h-.8c-1.2-.2-2.3-.4-2.6-1.2s.2-1.4.6-2.1a6.1,6.1,0,0,1,2.5-2.3c1.1-.4,1.3-.1,2.7-.4a20.3,20.3,0,0,0,4.2-2,17.3,17.3,0,0,1,3.7-1.6c3.5-1,5,.1,6.3-1.1a3.5,3.5,0,0,0,.2-4.4c-1.1-1.1-3.3-.4-4-.2s-1.6,1.2-3,1.6-3.1-.6-4.9-.3-1.7,1-2.8.7a3.3,3.3,0,0,1-1.3-.7,2.7,2.7,0,0,1-.9-1.2,3.6,3.6,0,0,1-.4-.9,3.1,3.1,0,0,1,.1-1c.3-.6,1.1-.8,1.9-1l1.9-.2c1.6,0,2.7.3,5,.2s5-.2,6.6-1.7a7.5,7.5,0,0,0,1.8-2.8c.5-1,1.3-2.7.7-3.3s-2.6,0-3.8,1.2a4.1,4.1,0,0,0-.7,1.1l-.3.4c-.5.4-1.2,0-2,0s-1.6,1-2.6.8-.7-.7-1.6-1.1-2.1.1-3.7-.4-1.9-.7-2.1-1.8,1.1-2.3,1.3-2.5c2.8-2.3,6.2.7,12.3-1,3.4-1,4.1-2.5,4.2-3s.4-1.1,0-1.5-2.2-.3-3.3,0-2.2,1.1-3.6,1.4-1.5-.4-3.4-.6-4.1,1.3-6.1.6-2.6-1.9-2.4-3,2.7-1.8,3.5-2c2.5-.5,3.5.2,7.5.6s5.6-.2,6.3-.7,1.9-2.4,1.5-3-1.8.8-4.3.6a10.8,10.8,0,0,1-4.3-1.7l-1.3-.9-1.4-1.1c-1.3-.9-2.4.2-3.5-.5a2.6,2.6,0,0,1-1.2-2.9c.5-.9,2.4-.6,6.1-.3,6.1.5,10.4.8,11-.6a1.7,1.7,0,0,0,0-1,2.2,2.2,0,0,0-.5-.8c-.6-.6-1.5-.5-4.9,0a9,9,0,0,1-4,0c-.3,0-2.2-.9-2.2-2a1.2,1.2,0,0,1,.4-.8c.8-.8,2.2,0,4.3.3s4.3.5,5.8-1.5,1.1-2.1.6-2.7-3.8.6-8.2.5a2.9,2.9,0,0,1-2-.5c-.9-.7-1.5-2.1-1-2.7s.9-.3,2.9-.3c3.7.2,4.8,0,5.6-.5s.6-.8,1.6-1.5.9-.6.9-1.1a1.7,1.7,0,0,0-.1-.7,4.9,4.9,0,0,1-.1-1.2c-.1-1.4.1-1.8-.1-1.9s-.7.7-1.8,1.2a3.8,3.8,0,0,1-3.3,0c-.8-.4-1.6-1.3-1.4-1.8s1.6,0,3.4-.7,2.5-1.7,2.3-2.2-2.9.8-4.1-.4a1.8,1.8,0,0,1-.4-2.2c.4-.4.8.2,1.8,0s1.8-.5,1.9-1.1-1.8-1.6-1.7-2.5,1.6-.5,2.5-1.7.2-1.8,1.1-3.5S668.4,317.9,668.8,318.2Z"/><path class="cls-10" d="M667.9,325.4l3.8,148.2H660.8Z"/><path class="cls-10" d="M142.9,280.1l3.8,183H135.8Z"/><path class="cls-10" d="M560.5,442.9a1.6,1.6,0,0,0-1.1.7,2.7,2.7,0,0,0-.6,1.2c0,1.1.4,1.1,0,1.5s-.6,0-1,.5a.5.5,0,0,0-.2.4.7.7,0,0,0,.1.5s0,.6,1.4,1.6.9.6.9.8a3.6,3.6,0,0,1-2.5,0c-1-.6-.9-1.1-1.2-1.1s-.7.9-.6,1.4.8.7,1.4.9,2,0,2.6.6.5.9.3,1a11.8,11.8,0,0,0-2.7-.6c-.3,0-.9,0-1,.4s.3.7.5.9a3.1,3.1,0,0,0,.9.7c1.1.4,1.8-.3,2.2,0a1,1,0,0,1,.2.9,1.4,1.4,0,0,1-.5.8c-.6.5-1.7,0-1.8,0s-1.2-1.2-1.5-1.1,0,.9-.5,1.3-.9,0-1.7.5-1.1.8-1.1,1.3.8.6,1.2,1.5,0,.7.4.8.6,0,1.6,0h2c.4,0,.4-.6.8-.7a.6.6,0,0,1,.8,0,2.2,2.2,0,0,1,0,3c-.8.7-2.4,0-6.1,0-.3,0-.8,0-1,.3s.2,1.4.9,1.9.8.5,4.3.6h1.5a3.8,3.8,0,0,1-2.2,1.3c-1.2.1-1.9-.9-3.9-.8l-2.1.5h-.5l-.4.4c-.1.2.9,1,1,1.1l1.4.5c.5.4.7,1.2,1.3,1.3s1-.5,1.4-.2,0,.7.3,1a1.9,1.9,0,0,0,1.7-.4,2.9,2.9,0,0,1,1.4-.8l.7.2a2.1,2.1,0,0,1,.4.6,1.7,1.7,0,0,1,.1.7.9.9,0,0,1-.3.7c-.2.3-.6.3-1.3.5s-1.3.5-2.2.6-2.4-.4-4.9,0-1.6.5-1.7.6.6.7,1,1.8,0,.9.5,1.2.3,0,.8.3a2.3,2.3,0,0,0,1,.7,2.2,2.2,0,0,0,1.6,0c.5-.3.5-.6.7-.6s.4.6,1.1,1.1a1.7,1.7,0,0,0,1.2.5c.8,0,1-.8,1.9-.9h.9a1.5,1.5,0,0,1,0,1.8,2.2,2.2,0,0,1-.7.9,5.3,5.3,0,0,1-1,.6c-1.1.3-1.4,0-2.7.2s-.8.5-1.4.5-1.8-.7-2.7-.4-.5.6-1.2.7a2.4,2.4,0,0,1-1.2,0,3.3,3.3,0,0,1,1.3,1.3c.4.8,0,.7.3.9s1.1-.4,1.7,0,.5,1.1,1,1.2,1.2-1.3,2.1-1.3.6.6,1.3.7,1-.4,1.8-.4l.7.2a.9.9,0,0,1,.6.4,2.5,2.5,0,0,1,0,3.4c-.5.7-1.6.6-3.8.6a8.3,8.3,0,0,1-2.8-.3,7.3,7.3,0,0,0-2.4-.7c-.5,0-1.2,0-1.5.4a1.3,1.3,0,0,0,0,1.2c.4.5.9.4,1.2.8s0,.7,0,1,.7.2,1.6.3l1.7.5a3.9,3.9,0,0,0,3,0c.6-.3.6-.6,1.2-.8a2.2,2.2,0,0,1,1.6,0,2.6,2.6,0,0,1,.4,3.5c-.5.5-1.2,0-3,.2s-1.4.7-2.9.9a10.5,10.5,0,0,1-4-.4c-.3,0-.7-.3-1,0a1.4,1.4,0,0,0-.2.7,1.9,1.9,0,0,0,.2.7,8.6,8.6,0,0,1,1,1.6c.4.9,0,.8.4,1s1.6-.3,2.2.2.3,1.3.9,1.6.5,0,2.4-1.1,1.6-.9,2.2-.8.8,0,1,.5a1.7,1.7,0,0,1,0,1,1.4,1.4,0,0,1-.5.8,4.8,4.8,0,0,1-3,1.1,7.9,7.9,0,0,1-4.3,0c-.5,0-1.1-.4-1.4,0l-.5.7a2.8,2.8,0,0,0,.1.9c.3.8,1.3,1.1,3.2,1.4s3.6.9,4.6,0,1.1-1.3,1.6-1.2.4.5.5,1.1.4,1.4,0,1.8-.6.6-4.3.7h-1.9c-1.6.3-2,.9-3.2.9s-1.3-.5-1.8,0a1.7,1.7,0,0,0-.6,1,2.3,2.3,0,0,0,.2,1.1c.3.6.8.5,1.8,1.2s.7,1.3,1.4,1.6,2.4-.6,3.1,0,0,.9.7,1.3.5.2,2.7-.3,1-.2,1.2,0a2.7,2.7,0,0,1,.9,3.2c-.5,1-1.4,1-5.5,2.3s-3.4,1.2-4.3,1.2-2.7-1.2-4.2-.7l-1.7.8c-1.5.8-1.8.9-1.9,1.2a3.7,3.7,0,0,0,1.4,2.2c.8.6,2,0,4.2.7a6.6,6.6,0,0,1,1.5.5l1.8.8a6.2,6.2,0,0,0,4.2-1l1.2-.4a2.5,2.5,0,0,1,1.8-.8,4.4,4.4,0,0,1,1.5.5,2.7,2.7,0,0,1,1,1.1,15.9,15.9,0,0,1-5.7,3.2,17.6,17.6,0,0,1-6.5.7c-2.2-.4-4.9-1.5-5.7-.4s0,1.8.3,2.4a6.4,6.4,0,0,0,2.7,1.9,6.1,6.1,0,0,0,3.3.1c2.2-.4,2.5-1.8,5.2-2.2a11.3,11.3,0,0,1,2.6,0,31.1,31.1,0,0,1,6.1,0c1.7.8,1.2,1.9,3.2,3.2s4.1,1.9,5.1.9a3.5,3.5,0,0,0,0-3.9c-1.4-2.1-4.1-1.3-6.4-3.6a5.5,5.5,0,0,1-1.9-2.9,4.8,4.8,0,0,1,.7-3.7c.4-.9.8-1.6,1.5-1.8s1.6.6,3.4,1.7a8,8,0,0,0,5.8,1.4c.2,0,2-.6,2.2-1.9s-1.1-2.6-2.3-3.1a4.6,4.6,0,0,0-2-.5c-1.9,0-7.4,0-9-2.7a11.7,11.7,0,0,1-1.1-2.8s3.3-.9,4.3.4.3.6.6.8a5.4,5.4,0,0,0,1.8,0c.5,0,0,.4.4.6s2.5-.8,2.6-.6.1.1.1.2,0,.2-.1.2a2.8,2.8,0,0,1,1-1.4c.6-.6,1.1-.5,1.1-.8s-.6-.9-1-1.2-1.4-.6-1.4-.8,1.2-.4,1.2-.7-.7-.6-1.5-.9a10.9,10.9,0,0,0-3.6,0,5.7,5.7,0,0,1-2.6-.4,6.4,6.4,0,0,1-2.2-1.4c-1-1-1.5-2.5-1-2.9s1.3,0,2,.8.4.6.9.9a4.6,4.6,0,0,0,2.3.5,2.8,2.8,0,0,0,1.3,0c.7-.2,1.5-.8,1.4-1.4s-.8-1.1-1.1-1.2-2,0-3.8-.7a4.2,4.2,0,0,1-1.8-.8c-1.2-1-1.7-2.8-1.2-3.4s1.4,0,1.6,0a8.3,8.3,0,0,1,1.6,1.2,7.5,7.5,0,0,0,2,1c.3,0,1.9.4,2.7-.5s0-.6.6-1,1.4,0,1.8-.5a3.1,3.1,0,0,0,.2-.8,1.9,1.9,0,0,0-.2-.8c-.4-.2-1,0-1.6,0a6.9,6.9,0,0,1-4.9,0c-.6-.3-.4-.4-1.4-1s-2.2-.7-2.7-1.3-.5-3.2,0-3.5.6.3,1.6.6.8,0,1.1,0,.9,1.3,1.7,2a4.7,4.7,0,0,0,1.5.6,4.9,4.9,0,0,0,1.7-.1c.8-.3.9-.7,1.9-.9H573a1.4,1.4,0,0,0,.9-.1l.7-.6a1.4,1.4,0,0,0-.4-1.3,3.6,3.6,0,0,0-1.6-1.4c-.6-.3-.8,0-1.6-.3a6.8,6.8,0,0,1-2.6-1.2l-2.1-.9c-2.2-.6-3.1,0-3.9-.7a1.9,1.9,0,0,1,0-2.6,2.1,2.1,0,0,1,2.4,0,6.6,6.6,0,0,0,1.9.9c.8.2,1.6-.5,2.9,0s1.2,1,1.9.7.4-.6,1.2-1.4,1.1-.7,1.1-1-1.7-.7-2.1-.8a29.4,29.4,0,0,0-4.2,0,5.9,5.9,0,0,1-4.1-1,5,5,0,0,1-1.1-1.7c-.3-.6-.8-1.7-.4-2s1.6,0,2.3.7.2.5.6.9a3.7,3.7,0,0,0,1.4.7,3.2,3.2,0,0,0,1.4-.2c.5-.2.4-.4,1-.6s1.2,0,2.2-.3,1.1-.4,1.3-1.1-.7-1.4-.8-1.5c-1.7-1.5-3.8.4-7.4-.7-2.1-.6-2.5-1.5-2.6-1.7a1.1,1.1,0,0,1-.1-.5.9.9,0,0,1,.1-.5c.4-.4,1.4,0,2,0s1.4.7,2.2.8,1,0,2.1-.3,2.4.8,3.7.3a2.1,2.1,0,0,0,1-.6,3.7,3.7,0,0,0,.5-1.1c0-.8-1.3-1.3-1.5-1.4s-2.3,0-5.2.5-3.3,0-3.8-.4-1.1-1.5-.9-1.8,1.1.4,2.7.3a8.2,8.2,0,0,0,2.6-1l.8-.6c1.4-.7,2.1-.3,2.9-.9s1-1.3.7-1.8-1.5-.3-3.6,0c-3.8.3-6.4.5-6.8-.4a.7.7,0,0,1,.1-.5.5.5,0,0,1,.3-.5c.3-.4.9-.3,3,0s2,.3,2.4,0a1.4,1.4,0,0,0,.6-1.2c-.2-.4-4.3.5-5.6-1.2a1.5,1.5,0,0,1-.4-1.6c.4-.4,2.3.3,5,.3a1.9,1.9,0,0,0,1.2-.4c.5-.4.9-1.2.6-1.6s-.5,0-1.8,0a6.6,6.6,0,0,1-3.4-.3c-.5-.3-1-.7-.9-1s1.9,0,2.1-.4-.5-1-1.1-1.3-1,0-1-.3,1-.5,1.7-.7a8.9,8.9,0,0,0,1.8-.5c.1-.2-.7-.4-2.2-1.1s-1.2-.7-1.2-.7,1.7.5,2.5-.3a.9.9,0,0,0,.3-.6,2.2,2.2,0,0,0-.1-.8c-.5-.6-2.1-.2-2.3-.6s.9-.6,1.1-1.5a3,3,0,0,0-.2-1,1.9,1.9,0,0,0-.7-.8c-.8-.6-1.4-.2-1.8-.7S560.7,443,560.5,442.9Z"/><path class="cls-10" d="M560.8,447.2,558.5,537h6.7Z"/><path class="cls-10" d="M529.4,464.5l-.7.4a1.1,1.1,0,0,0-.3.8c-.1.7.2.7,0,.9s-.5,0-.7.4v.6s0,.3.9,1l.6.4a2.2,2.2,0,0,1-1.6,0c-.6-.3-.5-.7-.7-.6s-.5.5-.3.8.5.5.8.7,1.3,0,1.7.3.3.5.2.7-.8-.5-1.8-.4-.5,0-.6.2.2.5.3.6.4.4.6.4,1.1-.1,1.4,0a1.3,1.3,0,0,1,.1.6c0,.2-.2.4-.3.6s-1.1,0-1.2,0-.7-.8-.9-.7,0,.5-.3.8-.6,0-1.1.3-.7.5-.7.9.5.3.8.9,0,.4.2.5.4,0,1.1,0h1.2c.3,0,.3-.4.5-.4h.6a1.5,1.5,0,0,1,.4.9,1.5,1.5,0,0,1-.4,1c-.5.5-1.6,0-3.9,0-.2,0-.6,0-.7.2a.9.9,0,0,0,.1.7,1.2,1.2,0,0,0,.5.5c.6.3.5.3,2.6.4h1a2.9,2.9,0,0,1-1.4.8c-.8.1-1.3-.5-2.5-.5l-1.3.4c-.4,0-.6.1-.6.2s.5.7.6.7l1,.4c.3.3.4.7.8.8s.6-.3.9-.2,0,.5.2.7a1.3,1.3,0,0,0,1.1-.3,1.6,1.6,0,0,1,.9-.5h.3l.3.2c0,.2.1.3.1.6a4.3,4.3,0,0,0-.1.5c-.2.2-.5.2-.9.3l-1.4.4c-1.2.3-1.5-.2-3.1,0s-1,.3-1.1.5a2.7,2.7,0,0,1,.6,1.1c.3.7,0,.6.4.8l.5.2a1,1,0,0,0,.7.4l.4.2.5-.2c.3-.2.3-.4.5-.4s.2.4.6.7l.8.3c.5,0,.6-.4,1.2-.5a.6.6,0,0,1,.6,0,1.1,1.1,0,0,1,.2.6.8.8,0,0,1-.2.5,1,1,0,0,1-.5.6c-.1.2-.4.3-.6.4s-.9,0-1.7.1-.5.3-.9.3-1.2-.4-1.8-.2-.3.4-.7.4h-.8a1.8,1.8,0,0,1,.8.9c.2.5,0,.5.2.6s.7-.3,1.1,0,.4.7.7.7.8-.8,1.4-.8.3.4.8.5.6-.3,1.1-.3h.5l.4.3a1.8,1.8,0,0,1,0,2.2c-.5.4-1.2.4-2.5.4l-1.8-.2a2.9,2.9,0,0,0-1.6-.4c-.3,0-.8,0-.9.2a.6.6,0,0,0-.1.4c0,.2,0,.3.1.4s.5.2.7.5,0,.4,0,.6.4.2,1,.2.5.2,1.1.3a2.1,2.1,0,0,0,1.9,0l.8-.5h1a1.6,1.6,0,0,1,.5,1.1,1.4,1.4,0,0,1-.2,1.1c-.4.4-.8,0-2,0s-.9.5-1.8.6a5.7,5.7,0,0,1-2.6-.3h-.6c-.1.2-.2.3-.2.5a.8.8,0,0,0,.2.5l.6,1c.2.5,0,.5.2.6s1-.2,1.5,0,.2.9.6,1,.3,0,1.5-.6,1-.6,1.4-.6h.4l.2.3a1.3,1.3,0,0,1,.1.6,1,1,0,0,1-.4.5,3.5,3.5,0,0,1-2,.7,6.2,6.2,0,0,1-2.7,0c-.4,0-.7-.3-1,0l-.3.5a1.1,1.1,0,0,0,.1.5c.2.5.8.7,2,.9s2.3.5,3,0,.7-.8,1-.7.2.3.3.7a1.4,1.4,0,0,1,0,1.1c-.2.3-.3.4-2.6.4H525c-1,.2-1.2.6-2,.6s-.8-.3-1.1,0-.3.4-.4.6a1.1,1.1,0,0,0,.1.8c.2.3.5.2,1.1.7s.5.8.9,1,1.6-.4,2.1,0,0,.7.4.9.3.1,1.8-.2.5-.2.7,0a2.2,2.2,0,0,1,.7.9,2.5,2.5,0,0,1-.1,1.2c-.3.6-.9.6-3.5,1.4s-2.2.8-2.8.8-1.6-.8-2.7-.4l-1.1.5c-.9.5-1.1.6-1.2.8a2.4,2.4,0,0,0,.9,1.4c.5.3,1.3,0,2.7.4l.9.4,1.2.5c.6.2,1.4,0,2.9-.7l.7-.3a2.2,2.2,0,0,1,1.1-.5l1,.3a2.3,2.3,0,0,1,.7.7,12.3,12.3,0,0,1-3.7,2.1,9.4,9.4,0,0,1-4.1.4c-1.4-.2-3.2-.9-3.7-.2s0,1.2.2,1.5a3.9,3.9,0,0,0,3.8,1.3c1.4-.3,1.6-1.1,3.4-1.4h1.6a25.4,25.4,0,0,1,3.9,0c.8.2.8,1.2,2.1,2s2.6,1.2,3.2.6a2.8,2.8,0,0,0,.3-1.3,2.7,2.7,0,0,0-.3-1.2c-1-1.3-2.7-.8-4.2-2.3a3.6,3.6,0,0,1-1.2-1.8,3.4,3.4,0,0,1,.4-2.4c.3-.5.5-1,1-1.1s1.1.4,2.2,1.1a5.6,5.6,0,0,0,3.8.8s1.1-.3,1.3-1.1-.7-1.7-1.5-2a2.8,2.8,0,0,0-1.3-.3c-1.1,0-4.7,0-5.7-1.8a5.6,5.6,0,0,1-.7-1.8s2.1-.6,2.8.2.2.4.4.6h1.2c.3,0,0,.3.2.4s1.6-.6,1.7-.4a.1.1,0,0,1,0,.2,3.1,3.1,0,0,1,.7-.9c.3-.3.6-.3.7-.5s-.4-.5-.7-.7-.9-.4-.9-.6.8-.2.8-.5-.4-.3-.9-.5a9.6,9.6,0,0,0-2.4,0,4,4,0,0,1-3.1-1.1c-.6-.7-.9-1.6-.7-1.8s.9,0,1.3.4.3.4.6.6a2.8,2.8,0,0,0,1.5.4h.9a.9.9,0,0,0,.8-.9c0-.4-.5-.7-.7-.8s-1.3,0-2.4-.4a2.3,2.3,0,0,1-1.2-.6c-.7-.6-1.1-1.8-.7-2.1s.8,0,.9,0a4.1,4.1,0,0,1,1.1.7,3.8,3.8,0,0,0,1.3.6c.3,0,1.3.3,1.8-.2s0-.5.4-.7.8,0,1.1-.3a.9.9,0,0,0,0-1h-1a4.2,4.2,0,0,1-3.1,0c-.5-.2-.3-.3-1-.7s-1.3-.4-1.7-.8-.3-2.1,0-2.2.4.1,1.1.3.5,0,.7,0,.5.9,1.1,1.3l.9.4a2.1,2.1,0,0,0,1.1-.1c.5-.1.6-.4,1.2-.5h1.5l.4-.4c.2-.3,0-.5-.2-.8a2.2,2.2,0,0,0-1-.9h-1a4.8,4.8,0,0,1-1.6-.8l-1.5-.6c-1.3-.4-2,0-2.4-.4a1.4,1.4,0,0,1,0-1.7c.4-.4,1.2-.2,1.6,0a2.4,2.4,0,0,0,1.1.6c.5.1,1.1-.3,1.9,0s.8.6,1.2.5.3-.5.8-1,.7-.4.7-.6l-1.4-.5H534a3.6,3.6,0,0,1-2.5-.6,4.4,4.4,0,0,1-.8-1.1c-.2-.4-.4-1-.2-1.3s1,0,1.4.5.2.4.4.6a1.8,1.8,0,0,0,.9.4,1,1,0,0,0,.9-.1c.3,0,.3-.3.6-.4h1.5s.7-.3.8-.7-.5-1-.5-1-2.5.3-4.8-.4-1.6-1-1.6-1.2a.5.5,0,0,1,0-.6c.1-.2.8,0,1.3,0s.8.5,1.3.5.7-.1,1.3-.2,1.6.5,2.4.2,1-.7,1-1.1a1.7,1.7,0,0,0-1-.9c-.9-.4-1.4,0-3.3.4s-2.2,0-2.4-.3-.7-1-.6-1.1.7.3,1.7.1a4.9,4.9,0,0,0,1.7-.6l.5-.3c.9-.5,1.4-.3,1.9-.7s.6-.8.4-1.1-.9-.2-2.4,0-4,.3-4.3-.3a.4.4,0,0,1,.1-.3c0-.1.1-.2.2-.3s.6-.2,1.8,0h1.7a.7.7,0,0,0,.3-.8c-.2-.2-2.8.3-3.6-.7s-.4-.9-.2-1.1,1.5.2,3.1.2l.8-.2a1.3,1.3,0,0,0,.4-1.1c-.2-.2-.4,0-1.1,0s-1.9,0-2.2-.2-.7-.4-.6-.6,1.2,0,1.3-.3-.3-.6-.7-.8-.6,0-.6-.2.6-.3,1.1-.4,1.1-.3,1.1-.4l-1.4-.6c-1-.5-.8-.4-.8-.5s1.1.3,1.6-.1a.9.9,0,0,0,.1-.5.6.6,0,0,0-.1-.4c-.3-.4-1.4-.1-1.4-.4s.6-.4.6-.9a1.5,1.5,0,0,0-.1-.7,1.2,1.2,0,0,0-.5-.5c-.4-.4-.8,0-1.1-.5S529.6,464.6,529.4,464.5Z"/><path class="cls-10" d="M529.7,467.3l-1.4,57.5h4.2Z"/><path class="cls-15" d="M138.9,213.1c0,.5-.9.6-2.5,1.3a4.6,4.6,0,0,0-1.5.9l-2,1.6a6.6,6.6,0,0,1-4.6.4c-2-.3-2.5-.8-5-1.1h-1.9c-1.8.4-2.7,1.9-3.2,1.5s-.2-.8,0-1.3,2.1-.9,2.1-1.4-.5-.7-.8-.9a11.7,11.7,0,0,0-4.1-1,6.6,6.6,0,0,1-3.5-1.6,7,7,0,0,1-2.3-3.1c.3-.4,2.7,1.7,7.5,2.8a30,30,0,0,0,7.3.6,10.8,10.8,0,0,0,5.3-.8c2.4-1.2,1.9-3,4.2-5.9a29.3,29.3,0,0,1,8.4-6c3.8-2.2,5.8-3.4,6.3-2.8s-1,4.9-4.1,7.7-5.6,3-6.8,5.5a1.8,1.8,0,0,0-.4,1,2,2,0,0,0,0,1.1C137.7,212.4,138.9,212.6,138.9,213.1Z"/><path class="cls-15" d="M192.7,197.8a8.2,8.2,0,0,0,2.6,6.8c2.3,2.6,4.9,2.7,7.8,6.4.8,1.1,1,1.6.8,2.2s-7,1.1-7.1,2,2.9,1.3,3.7,1.5a11.1,11.1,0,0,0,8,.5,26.2,26.2,0,0,0,3.4-2.4l2.2-1.7,2.7-2.3c3.4-2.9,7.1-1,10.6-4.1.3-.3,1.3-1.4,3.2-3.8s2.3-2.8,2.1-2.9-10.7,3.7-13.7,5.7a31.3,31.3,0,0,0-3,2c-1,.7-1.6,1.3-2.1,1.1s-.5-1.5-1.3-1.8a2.1,2.1,0,0,0-1.1.1,2,2,0,0,0-.9.5c-.3.3-.8,1.1-1.4,1.3s-1.4,0-2.6-.7a31.3,31.3,0,0,1-3.4-2.1c-2.4-1.7-2.9-1.5-4.7-2.7C194.3,200.8,193.1,197.6,192.7,197.8Z"/><path class="cls-15" d="M254.1,205.2c0-.7,1-1,2-1.3l3.4-1.7c2.4-1,4.8-2,7.2-2.8a20.4,20.4,0,0,1,9,2.3,37.3,37.3,0,0,1,6.4,3c1.4.9,3.5,2.2,3.5,2.7s-3,.2-5.2-.5-4.1-1.8-7.5-2.7a3,3,0,0,0-2.6,0c-.8.5-.4,1.4-1.1,1.8s-1.7-.2-4.2,0a2.1,2.1,0,0,0-1.5.4c-.7.7,0,1.9,0,3s-1.5,4.3-3.8,6.9c-.6.5-4.4,4.8-5.9,3.9s-.5-2.3-.4-2.5c.2-1.9,1.3-2,1.9-3.7s-.7-3.7.3-5.6,2.5-1.9,2.4-2.2-2.2.8-3.2,0a1.2,1.2,0,0,1-.5-.5A.8.8,0,0,1,254.1,205.2Z"/><path class="cls-15" d="M361.1,146.7c-1.3.5.8,7.4.9,7.6a21.4,21.4,0,0,0,3.4,7.7,14,14,0,0,0,6.8,5.9,5.5,5.5,0,0,1,3,1.6,3.3,3.3,0,0,1,1.1,2.5c-.2,1.1-2.4,1.9-5.5,2.6s-5,.8-5,1.3,2.6,1.4,5,1.7a20.1,20.1,0,0,0,12.1-1.4,15.2,15.2,0,0,0,6.3-3.9c1-1.1,1.9-2.6,3.4-2.7s1.9.5,2.4,0,.3-1.5.2-1.7a3.6,3.6,0,0,0-2.4-2.4,35.5,35.5,0,0,0,3.1-2.3,22.1,22.1,0,0,0,4.8-5.7c2-3.8,2.6-8.6,1.6-9s-1.3.8-4.7,5.3a42.4,42.4,0,0,1-11.5,12,5.1,5.1,0,0,1-2.1,1,6,6,0,0,1-2.3-.1,3.6,3.6,0,0,1-1.6-1.4c-2.6-4.1-7.1-5.4-15-14.5C362.8,148,361.8,146.4,361.1,146.7Z"/><path class="cls-15" d="M319.6,197.2c-.7.7,1.4,3.4,1.9,4.1a17,17,0,0,0,8.9,6.7c3,.7,5.1.3,7.4,2,.6.4,1.6,1.2,1.5,2.2a3.2,3.2,0,0,1-.3.9l-.8.6a4.5,4.5,0,0,0,1.6,2l.6.3h1.9a27.5,27.5,0,0,0,5,.9,6.1,6.1,0,0,0,3.4-1.7c1.7-1.4,1.8-2.2,3.1-2.7s2.6,0,2.8-.4-.5-1.4-1.1-1.8a4.7,4.7,0,0,0-3.4-.8l3-2.9a24.4,24.4,0,0,0,6.9-9c.5-1.6,1.1-3.9.6-4.1s-.3,0-.9.6a9.4,9.4,0,0,0-1.9,3.2c-.5,1.4-1.2,1.6-4.7,4.7s-5.2,5.5-7.1,5.7a8.2,8.2,0,0,1-4.9-1.6c-3.4-1.9-3.4-3.2-6.3-4.4s-3.2.3-6.9-1c-1.9-.7-3.2-1.6-7.3-3.1C320.7,197.1,319.9,196.8,319.6,197.2Z"/><path class="cls-16" d="M736.3,765.3c-14.2-14.9-13.3-29.3-27.9-36-6.7-3-10.4-1.6-18.4-2.3-25.4-2.2-31.8-20.3-54.6-31.7-5.4-2.6-32.2-4.3-85.8-7.7-7.7-.5-24.9-1.6-41-12.8a113,113,0,0,1-9.3-7.8c-20-15.8-55.9-4-64.5-1.4-48.2,13.9-89.6-21.5-148.4-29.1-55.1-7-73.1,9.1-129.6,25.7,11.9,15.9,18.7,34,30.9,50.3a63.9,63.9,0,0,0,10.2,7.9c36.2,13.6,73.6,23.8,94,58.9,9.9,17.6,19.3,35.2,23.4,53.8,115.6,1.5,86-8.3,133.2-8.7a69.2,69.2,0,0,0,33.7-8.3,64.4,64.4,0,0,0,12.8-9.3c20.7-17.9,63.7-9.1,122.9-6.9,23.6.9,41,.3,52.3,0s95.3-3,96.3-15.1C766.9,779.8,751.4,780.9,736.3,765.3Z"/><path class="cls-17" d="M337,786.3l5.2,3.8C340.5,788,338.7,786.5,337,786.3Z"/><path class="cls-17" d="M304.1,758.5a116.4,116.4,0,0,0,15.6.7c7.7.3,22.9.7,23-.3s-24.2-5.7-49.2-8l-3.1-.3c2,2.3,4,4.6,6.1,6.7A12.5,12.5,0,0,1,304.1,758.5Z"/><path class="cls-17" d="M736.2,765.2c-1.2-1.3-2.3-2.7-3.4-4,.3,5,8.7,12.8,5.5,18.1s-21.1,4.6-34.1-1.4a52.9,52.9,0,0,1-12.2-8.1c-6.1-5.5-5.5-7.6-9.5-10.7-7.2-5.7-13.1-.8-26.7-5.1-11.7-3.6-18.9-8.9-19.6-7.9s10,7.8,19.6,21.7c4.4,6.5,7,10.3,5.7,13.7-2.5,6.8-19.2,9.9-31.8,4.4-7.4-3.3-6.5-6.5-26.4-27.5a151.5,151.5,0,0,0-17.5-15.5c-10.6-8.1-15.1-9.1-19.1-8.6s-9.8,4.6-9.4,7.3c.8,4.6,19.3-1.7,30.4,8.7,5.5,5.1,3.1,8.6,11,19.9s12.1,11.5,11.4,14.8c-1,5.2-8.8,10-12.9,8.1s-3.8-8-5-7.9,0,6.3-2.6,8.9-14,.4-21.5-4.8c-15.5-10.6-9.6-23-23.9-34.7-10-8.3-23.4-9.6-32.5-10.8-6.3-1-15.7-1.6-16.1,0s23.2,4.7,38.5,22.4c8.6,9.8,14.1,24.2,10.1,28.2s-20.2-4.9-21.7-5.8c-19.7-11.9-17.6-25.7-34.1-33.3-12.4-5.7-21.3-1.3-25.8-8.5s2.9-13.6-1.6-19.7c-2.4-3.1-7.4-4.2-17.6-6.3-5.2-1.1-10.4-1.8-15.7-2.4.9,1.8,6,12.9.7,23.9a26.8,26.8,0,0,1-13,12.3c-5,2.3-16.5,5.9-45.6-7.9a201.1,201.1,0,0,1-54.3-38.4,110.4,110.4,0,0,0,40.5,42c11.6,6.6,24.8,9.9,50.7,16.5,20,5.2,41.3,9.3,61.5,25.3,5,4,8,7.1,7.3,9.5-2.2,6.9-32.5-5.5-60.1,2.8-2.9.9-9.5,3.1-15.2,0s-6-7.8-8.7-12.3S380.8,780,364,776.9c2.4,1.1,19.3,8.8,21,23.2a13.5,13.5,0,0,1,.1,4.5,10.8,10.8,0,0,1-1.6,4.2c-3.6,4.6-11.3,6.5-14.3,3.7-1.3-1.2-.7-2.3-1.9-6-2-5.8-5.7-9.5-6.1-9.2a37,37,0,0,1,2.2,8.7,23.7,23.7,0,0,1-.1,2.4,96.3,96.3,0,0,1,17.5,23.7c40-2.2,33.2-7.6,67.9-7.9a69,69,0,0,0,33.6-8.2,62.6,62.6,0,0,0,12.8-9.3c20.8-18.1,63.8-9.2,122.9-7,23.5,1.2,41,.7,52.2.3s95.3-3,96.3-15.1C766.9,779.8,751.4,781,736.2,765.2Z"/><path class="cls-7" d="M522.2,255.5a30.5,30.5,0,0,0-15.4-10c-11.5-3.4-18.7.9-30.8,2.3-16.8,1.9-20.8-4.4-39.8-6.5a109.3,109.3,0,0,0-52.7,7.6c-28.2,10.7-44.7,29.7-53.9,40.7-29.7,35.3-21,53-42.8,85.7-24.1,36.1-59.5,51.4-95.6,67-43.6,18.9-81.3,23.2-119.8,27.5-6.4.8-12.3,1.3-17.7,1.8C75,516,85.2,566,106.2,610.6c14.7,30.6,40.7,54.3,65.6,79.2a48,48,0,0,1,6.7,8.2c14.3-2.3,30.7-4.8,50.2-7.4,29.2-3.8,53.3-6.2,69.2-7.7a196.7,196.7,0,0,0,19.8,21c30.7,27.9,58,34.8,63.8,36.2,12.2,2.9,26.2,6.2,33-1.1s3.4-18.7,1.1-28.5A86.4,86.4,0,0,0,398,675.2c8.5-1.6,17.3-3.1,26.3-4.4,23-3.4,46.1-5.5,69.3-6.6,1.3-11.1-1.4-16.7-4.4-19.8-8.5-8.5-21.6,1.1-36.3-7.6-9.1-5.5-7.8-11.6-19.8-19.8a58.4,58.4,0,0,0-19.7-8.8,424.5,424.5,0,0,0,45-108.8c8-31.4,13-50.8,14.8-78.8,1.5-23.8-.5-35.8,7-55.5a222.9,222.9,0,0,1,23.3-42.6c10.6-15,15.9-17.6,19.8-29.7C525.9,284.8,531.4,267.6,522.2,255.5Z"/><path class="cls-18" d="M528.3,259.2a29.7,29.7,0,0,0-15.4-9.9c-11.5-3.5-18.7.8-30.8,2.2-16.7,1.9-20.8-4.4-39.7-6.7a110.5,110.5,0,0,0-52.7,7.7c-28.2,10.7-44.6,29.7-53.9,40.7-29.7,35.2-21,53.1-42.8,85.7-24.1,36.1-59.5,51.4-95.6,67-43.6,19-81.3,23.2-119.8,27.6-6.7.7-12.8,1.3-18.4,1.7,2.9,16.3,8.3,32.1,17.5,45.9,30.6,46.4,60,86.1,72.5,139.3,3.6,15.4,6.9,30.6,10.7,45.4,19.6-3.5,43.2-7.4,74.9-11.6,29.2-3.8,53.3-6.2,69.2-7.7a196.7,196.7,0,0,0,19.8,21c30.7,28,58,34.8,63.7,36.2,12.2,2.9,26.2,6.2,33.1-1.1s3.4-18.7,1.1-28.6a87.5,87.5,0,0,0-17.6-35.1c8.5-1.6,17.3-3.1,26.4-4.4,22.9-3.4,46-5.5,69.2-6.6,1.3-11.1-1.4-16.7-4.4-19.7-8.5-8.7-21.6.9-36.3-7.7-9.1-5.5-7.8-11.6-19.8-19.8a58.4,58.4,0,0,0-19.7-8.8,424.5,424.5,0,0,0,45-108.8c8-31.4,13-50.8,14.7-78.8,1.6-23.8-.4-35.8,7.1-55.6a225.2,225.2,0,0,1,23.3-42.5c10.6-15,15.9-17.6,19.7-29.6C532,288.5,537.5,271.3,528.3,259.2Z"/><path class="cls-19" d="M413.1,245.9c-43,6.8-70.1,41.3-78.8,52.6-30,39.2-17.2,59.2-51.4,97.5a219.9,219.9,0,0,1-44.1,37,260,260,0,0,1-58.4,28.2c-34.8,12.2-62.8,14.8-93,17.4l-7.9.7c.9,3.8,2,7.7,3,11.6,7.1-.5,16.7-1.3,26.1-2.4,75.5-8.9,120.3-33.9,120.3-33.9,20.2-11.3,55.7-31.1,79.2-70.8,16-27.3,10.7-37.3,31.3-68.4,11.2-16.9,27.4-41.4,56.2-54.3,35.2-15.6,69.8-5.1,70.1-7.8S441.2,241.4,413.1,245.9Z"/><path class="cls-20" d="M417.9,282c.8.7-2.8,10.4-11.5,17.2s-24.6,10.4-27.5,6a6.6,6.6,0,0,1,1.7-7.7c3.7-3.4,9.1.8,16.5,0C409.7,296.1,416.7,281.2,417.9,282Z"/><path class="cls-20" d="M519.5,262a6,6,0,0,1-2.3-.2,7.2,7.2,0,0,1-1.9-1.1,5.8,5.8,0,0,1,1.1-7.8,5,5,0,0,1,2-.8,5.4,5.4,0,0,1,2.2.1c7.3,1.2,11.1,12.4,10.1,12.9s-3.5-4.9-7.2-4.4C522,260.9,521.5,262,519.5,262Z"/><path class="cls-21" d="M464,266a34.7,34.7,0,0,1-38.1,11.9A27.4,27.4,0,0,1,437.1,266C449.6,259.2,462.7,265.3,464,266Z"/><path class="cls-20" d="M440.2,282.1a9.1,9.1,0,1,0-9.1-9.1h0A9.2,9.2,0,0,0,440.2,282.1Z"/><path class="cls-7" d="M435.7,272.3h.6l.5-.4a2,2,0,0,0,.1-.7c0-.2-.2-.4-.3-.6l-.6-.3h-.7a1,1,0,0,0-.4.5,1.3,1.3,0,0,0-.1.6.9.9,0,0,0,.3.6Z"/><path class="cls-7" d="M532.5,295.8a25.2,25.2,0,0,1,17,17.4A70.2,70.2,0,0,0,532.5,295.8Z"/><path class="cls-7" d="M528.3,306.2a37.7,37.7,0,0,1,15,29.8A77.7,77.7,0,0,0,528.3,306.2Z"/><path class="cls-7" d="M523.2,311.5a37.3,37.3,0,0,1,4.7,33A76,76,0,0,0,523.2,311.5Z"/><path class="cls-19" d="M533,271.5a29.1,29.1,0,0,0-1.6-5,51.7,51.7,0,0,1-.2,15.7,52.2,52.2,0,0,1-4.5,13.3,39.7,39.7,0,0,1-7.7,11.3,32.1,32.1,0,0,1-11.2,7.7,28.7,28.7,0,0,1-10.1,1.9c-9.9.6-13-2.9-20.8-2.7a31.3,31.3,0,0,0-8.1,1.4,71.3,71.3,0,0,0-7,3.1,64.7,64.7,0,0,0-26.1,26.5c8.5,1.9,26,7.2,35,22.5,7.1,12.1,5.3,24.8.6,47.4-12.7,61.2-19.1,91.9-39.5,112.8-6.6,6.7-20.4,20.8-42.3,27.9-17.3,5.5-22.2,1-42.3,6.6a132.8,132.8,0,0,0-47.8,25.7,170.1,170.1,0,0,0-36.8,41.2c-15.9,22.8-49.5,40-91.4,50.3,5.5,7.5,11.2,14.9,16.7,22.3,13.6-2.2,29-4.5,47.1-6.9,29.3-3.8,53.4-6.2,69.3-7.6A184.3,184.3,0,0,0,324,707.7c30.7,28,58,35,63.8,36.3,12.1,2.8,26.1,6.2,33-1.1s3.4-18.6,1.1-28.6a86.3,86.3,0,0,0-17.6-35.1c8.6-1.6,17.3-3.1,26.4-4.4a693.6,693.6,0,0,1,69.1-6.8c1.3-11.1-1.4-16.8-4.5-19.8-8.4-8.6-21.6,1-36.2-7.7-9.2-5.5-7.9-11.5-19.8-19.8a60.2,60.2,0,0,0-19.7-8.8,428.1,428.1,0,0,0,45-108.8c8-31.4,13-50.8,14.7-78.8,1.5-23.8-.4-35.7,7.1-55.5a219.2,219.2,0,0,1,23.3-42.5,132.5,132.5,0,0,0,16.8-22.6,61.3,61.3,0,0,0,3.5-7.3,48.4,48.4,0,0,0,3-10.5A34.9,34.9,0,0,0,533,271.5Z"/><path class="cls-22" d="M344,658.9a131,131,0,0,0,59.1,76A101.8,101.8,0,0,1,344,658.9Z"/><path class="cls-22" d="M328.6,661.3a78.3,78.3,0,0,0,36.5,61.4,85.4,85.4,0,0,0,9.4,5.1,65.5,65.5,0,0,1-45.9-66.5Z"/><path class="cls-7" d="M478,311.7h.7l.4-.4a.9.9,0,0,0,.1-.7.9.9,0,0,0-.3-.6.8.8,0,0,0-.6-.2h-.6l-.5.5a1.3,1.3,0,0,0-.1.6c0,.3.2.4.3.6A.9.9,0,0,0,478,311.7Z"/><path class="cls-7" d="M464.7,305.3a.9.9,0,0,0,1.1-.5,1.5,1.5,0,0,0,.1-.7c0-.2-.2-.4-.3-.6l-.6-.3h-.7a1,1,0,0,0-.4.5,1.3,1.3,0,0,0-.1.6c.1.2.1.4.3.6A.9.9,0,0,0,464.7,305.3Z"/><path class="cls-7" d="M498.7,306.6c.4.1.8-.2,1.1-.6a1.3,1.3,0,0,0,.1-.6,1.2,1.2,0,0,0-.9-.9h-.7a1,1,0,0,0-.4.5,1,1,0,0,0,.4,1.4Z"/><path class="cls-7" d="M482.6,308.6a2,2,0,0,0,2-2.1h0a2.2,2.2,0,0,0-.6-1.5,2.1,2.1,0,0,0-2.9,0h0a2.2,2.2,0,0,0-.6,1.5,2.1,2.1,0,0,0,2.1,2.1Z"/><path class="cls-7" d="M471.5,302.9a2,2,0,0,0,1.1-.3,2.3,2.3,0,0,0,.7-1,1.9,1.9,0,0,0-.4-2.2,2.4,2.4,0,0,0-1.1-.6,1.7,1.7,0,0,0-1.2.1,1.8,1.8,0,0,0-.9.8,2.1,2.1,0,0,0-.4,1.1A2.2,2.2,0,0,0,471.5,302.9Z"/><path class="cls-7" d="M459,310.2a2.2,2.2,0,0,0,2-1.3,2.5,2.5,0,0,0,.1-1.2,1.7,1.7,0,0,0-.6-1,2.1,2.1,0,0,0-2.9,0l-.3.3a2.1,2.1,0,0,0,1.7,3.2Z"/><path class="cls-7" d="M507.2,310.7a2,2,0,0,0,1.5-.6,2,2,0,0,0,.6-1.4,2.1,2.1,0,0,0-2.1-2.1,2.2,2.2,0,0,0-2.1,2,2.1,2.1,0,0,0,.7,1.5A1.8,1.8,0,0,0,507.2,310.7Z"/><path class="cls-7" d="M448.9,321.7a2.1,2.1,0,0,0,1.1-.4,1.8,1.8,0,0,0,.8-.9,2.2,2.2,0,0,0-.5-2.3,1.2,1.2,0,0,0-1-.5,1.7,1.7,0,0,0-1.2.1,2.3,2.3,0,0,0-1,.7,2.7,2.7,0,0,0-.3,1.2A2.2,2.2,0,0,0,448.9,321.7Z"/><path class="cls-19" d="M486.8,304.1h.6a1.2,1.2,0,0,0,.5-.5,1.3,1.3,0,0,0,.1-.6,1.2,1.2,0,0,0-.9-.9h-.7a1,1,0,0,0-.4.5,1,1,0,0,0,.4,1.4Z"/><path class="cls-19" d="M525.7,289.5h.7a1,1,0,0,0,.4-.5.7.7,0,0,0,.1-.6,1,1,0,0,0-.8-.9h-.7a1,1,0,0,0-.4.5,1,1,0,0,0,.4,1.4Z"/><path class="cls-19" d="M511.5,302.7a2.7,2.7,0,0,0,1.2-.3,2.3,2.3,0,0,0,.7-1,2,2,0,0,0-.4-2.2,2.4,2.4,0,0,0-1.1-.6h-1.2a2.4,2.4,0,0,0-.9.8,1.5,1.5,0,0,0-.4,1.1A2.2,2.2,0,0,0,511.5,302.7Z"/><path class="cls-19" d="M496.8,296.7a2.3,2.3,0,0,0,1.1-.3,2.4,2.4,0,0,0,.8-.9,2.5,2.5,0,0,0,.1-1.2,2.4,2.4,0,0,0-.6-1.1,2,2,0,0,0-2.3-.4,2,2,0,0,0,.9,3.9Z"/><path class="cls-19" d="M478.4,296.5a2.1,2.1,0,0,0,2.1-2.1V294a2.3,2.3,0,0,0-1.7-1.7,2.5,2.5,0,0,0-1.2.2,2,2,0,0,0-.9.7,1.5,1.5,0,0,0-.4,1.1,2,2,0,0,0,.6,1.5A1.8,1.8,0,0,0,478.4,296.5Z"/><path class="cls-19" d="M517.2,304h.7c.2-.1.3-.3.5-.5s.1-.4.1-.6-.2-.5-.4-.6a.6.6,0,0,0-.6-.3h-.6a1,1,0,0,0-.5.4,1.5,1.5,0,0,0-.1.7l.3.6Z"/><path class="cls-19" d="M493.5,311.5h.6a1.1,1.1,0,0,0,.5-.4,1.7,1.7,0,0,0,.1-.7,1.1,1.1,0,0,0-.9-.9h-.6l-.5.5a1.1,1.1,0,0,0,.5,1.4Z"/><path class="cls-19" d="M497.1,301.7h.7a1,1,0,0,0,.4-.5.7.7,0,0,0,.1-.6.7.7,0,0,0-.3-.6.6.6,0,0,0-.6-.3h-.6a1,1,0,0,0-.5.4,1.5,1.5,0,0,0-.1.7,1.1,1.1,0,0,0,.9.9Z"/><path class="cls-19" d="M480.7,300.5h.6a1,1,0,0,0,.5-.4,1.7,1.7,0,0,0,.1-.7c0-.2-.2-.4-.3-.6l-.6-.3h-.7a1,1,0,0,0-.4.5.7.7,0,0,0-.1.6,1.1,1.1,0,0,0,.9.9Z"/><path class="cls-19" d="M468.2,306h.6a1,1,0,0,0,.5-.4,1.5,1.5,0,0,0,.1-.7,1.4,1.4,0,0,0-.9-.9h-.6a.8.8,0,0,0-.5.5,1.3,1.3,0,0,0-.1.6.6.6,0,0,0,.3.6A.9.9,0,0,0,468.2,306Z"/><path class="cls-19" d="M460.6,303.5h.7a1,1,0,0,0,.4-.5.7.7,0,0,0,.1-.6.9.9,0,0,0-.3-.6l-.6-.3h-.6a1.2,1.2,0,0,0-.5.5,1.3,1.3,0,0,0-.1.6.9.9,0,0,0,.3.6Z"/><path class="cls-19" d="M516.2,288a.7.7,0,0,0,.6-.1,1,1,0,0,0,.5-.4.8.8,0,0,0,0-.7,1.4,1.4,0,0,0-.2-.6l-.6-.3h-.7a1,1,0,0,0-.4.5.5.5,0,0,0-.1.6,1.1,1.1,0,0,0,.9.9Z"/><path class="cls-19" d="M528.1,281.2a.8.8,0,0,0,.7-.1.8.8,0,0,0,.4-.4.8.8,0,0,0,.1-.7.9.9,0,0,0-.8-.8.9.9,0,0,0-.7.1l-.4.4a1,1,0,0,0,.4,1.4Z"/><path class="cls-19" d="M526.9,269.7h.7l.5-.5a.6.6,0,0,0,0-.6.7.7,0,0,0-.3-.6.6.6,0,0,0-.6-.3.7.7,0,0,0-.6.1,1,1,0,0,0-.5.4.9.9,0,0,0,0,.7.5.5,0,0,0,.3.5C526.5,269.6,526.7,269.6,526.9,269.7Z"/><path class="cls-7" d="M377.8,306a3.9,3.9,0,0,0,2.3-.7,4,4,0,0,0,1.5-1.9,4.3,4.3,0,0,0-.9-4.5,4.2,4.2,0,0,0-4.5-.9,4,4,0,0,0-1.8,1.6,4.1,4.1,0,0,0,1.1,5.7A3.7,3.7,0,0,0,377.8,306Z"/><path class="cls-7" d="M494.9,298.7a114.7,114.7,0,0,0-37.6,59.6A85.4,85.4,0,0,1,494.9,298.7Z"/><path class="cls-7" d="M485.1,300.5a84.4,84.4,0,0,0-44,43.6A63.9,63.9,0,0,1,485.1,300.5Z"/><path class="cls-23" d="M260.9,445.4a192.7,192.7,0,0,1-43.1,34.2,209.9,209.9,0,0,1-80.1,26.1,275.8,275.8,0,0,1-31.5,1.7c-22.9.3-33.4-1.8-36.8-2.7-6.8-1.5-22.9-5.1-22.7-8.5.3-5.5,45-.6,103.6-14.9a287.2,287.2,0,0,0,70.2-25.2c32.2-16.9,54.1-35.6,56.5-32.8S262.6,443.6,260.9,445.4Z"/><path class="cls-7" d="M506.5,295.7a101.2,101.2,0,0,0-22.1,49.2A66,66,0,0,1,506.5,295.7Z"/><path class="cls-7" d="M492.1,300.5h.6a1,1,0,0,0,.5-.4,1.7,1.7,0,0,0,.1-.7,1.2,1.2,0,0,0-.9-.9h-.6a1.2,1.2,0,0,0-.5.5,1.3,1.3,0,0,0-.1.6A1.1,1.1,0,0,0,492.1,300.5Z"/><path class="cls-19" d="M520.7,298.1h.7c.2-.1.3-.3.4-.4s.2-.5.1-.7a.9.9,0,0,0-.3-.6l-.6-.3a1.3,1.3,0,0,0-1.1.6c0,.2-.1.4,0,.6a.7.7,0,0,0,.3.6A.5.5,0,0,0,520.7,298.1Z"/></g><path class="cls-7" d="M60,703.9H296.6v94.5c0,29.6-27,53.9-60,53.9H60c-33,0-60-24.3-60-53.9V757.8C0,728.1,27,703.9,60,703.9Z"/><path class="cls-24" d="M53.1,768.5a3.5,3.5,0,0,0-.3-1.4,2.8,2.8,0,0,0-.9-1,5.4,5.4,0,0,0-3.2-.9,5.3,5.3,0,0,0-3,.9,2.2,2.2,0,0,0-.9,1,2.8,2.8,0,0,0-.3,1.3H38.9a6.6,6.6,0,0,1,1.3-4,7.2,7.2,0,0,1,3.5-2.7,12.4,12.4,0,0,1,5-1,11.7,11.7,0,0,1,7.3,2,6.8,6.8,0,0,1,2.7,5.7,6,6,0,0,1-1.1,3.4,8.1,8.1,0,0,1-3.1,2.4,7.6,7.6,0,0,1,3.4,2.4,5.9,5.9,0,0,1,1.2,4,7,7,0,0,1-2.8,5.8,12.2,12.2,0,0,1-7.6,2.1,12.4,12.4,0,0,1-5.4-1,8.8,8.8,0,0,1-3.6-2.8,7.3,7.3,0,0,1-1.2-4.1h5.6a3.1,3.1,0,0,0,1.3,2.5,4.9,4.9,0,0,0,3.3.9,5,5,0,0,0,3.5-1,2.7,2.7,0,0,0,1-1.1,3.2,3.2,0,0,0,.3-1.4,3.4,3.4,0,0,0-1.2-3,5.2,5.2,0,0,0-3.4-1H45.6v-4.4h3.5C51.7,772.1,53.1,770.9,53.1,768.5Z"/><path class="cls-24" d="M63.2,783.8a11.9,11.9,0,0,0,2.5-3.8,20,20,0,0,0,.7-5.4V768H81.4v15.8h2.9v10.4H78.9v-6h-12v6H61.4V783.8Zm6.3,0H76V772.5H71.8v2.4A18.4,18.4,0,0,1,69.5,783.8Z"/><path class="cls-24" d="M104.8,778.3a12.1,12.1,0,0,1-2.1,7.4,6.5,6.5,0,0,1-5.7,2.8,6.4,6.4,0,0,1-5-2.1v9.5H86.7V768h5v2a5.8,5.8,0,0,1,2.3-1.8,7.1,7.1,0,0,1,2.8-.6,7.5,7.5,0,0,1,3.3.7,6.4,6.4,0,0,1,2.5,2.1,12,12,0,0,1,2.1,7.6v.3Zm-5.4-.4a7.7,7.7,0,0,0-1-4.4,3.3,3.3,0,0,0-2.9-1.5,3.5,3.5,0,0,0-2,.5A3.6,3.6,0,0,0,92,774v8.2a3.8,3.8,0,0,0,3.6,2C98.1,784.2,99.4,782.1,99.4,777.9Z"/><path class="cls-24" d="M119.8,788.2a6.1,6.1,0,0,1-.5-1.8,6.6,6.6,0,0,1-5.1,2.1,6.7,6.7,0,0,1-4.9-1.7,4.5,4.5,0,0,1-1.5-1.9,6.9,6.9,0,0,1-.5-2.4,6.7,6.7,0,0,1,.6-2.8,5.2,5.2,0,0,1,1.8-2.1,11.1,11.1,0,0,1,6.9-1.7H119v-1.2a2.9,2.9,0,0,0-.7-2.2,1.8,1.8,0,0,0-1-.7l-1.2-.2a3.4,3.4,0,0,0-2.2.7l-.6.8a3,3,0,0,0-.2,1h-5.3a6.4,6.4,0,0,1,1-3.3,7.9,7.9,0,0,1,3.1-2.3,9.6,9.6,0,0,1,4.4-.8,8.6,8.6,0,0,1,6,1.8,8.1,8.1,0,0,1,1.7,2.4,7,7,0,0,1,.4,2.9v8.7a13.2,13.2,0,0,0,.8,4.4v.3Zm-4.4-3.8a4.4,4.4,0,0,0,2.2-.5,4,4,0,0,0,1.5-1.4V779H117c-2.6,0-4.1.9-4.3,2.8v.3a2.9,2.9,0,0,0,.2.9,2.2,2.2,0,0,0,.5.8A3,3,0,0,0,115.4,784.4Z"/><path class="cls-24" d="M128.9,788.2V768h8.5a11.5,11.5,0,0,1,6.3,1.5,4.6,4.6,0,0,1,1.7,1.7,6.9,6.9,0,0,1,.5,2.4,3.8,3.8,0,0,1-.9,2.5,6.5,6.5,0,0,1-2.7,1.7,6.5,6.5,0,0,1,3.4,1.7,3.5,3.5,0,0,1,1.2,2.9,3.9,3.9,0,0,1-.5,2.4,4.2,4.2,0,0,1-1.6,1.9,10.9,10.9,0,0,1-6.1,1.5Zm5.4-12h3.4c1.9,0,2.8-.6,2.8-1.8a1.5,1.5,0,0,0-.8-1.6,4.5,4.5,0,0,0-2.3-.4h-3.1Zm0,3.6v4h4.4c1.9,0,2.8-.6,2.8-1.9s-.9-2.1-2.7-2.1Z"/><path class="cls-24" d="M158.6,784.2a3.5,3.5,0,0,0,2.4-.8,3.2,3.2,0,0,0,1-2.2h5a7,7,0,0,1-4.1,6.4,10.4,10.4,0,0,1-4.2,1,9,9,0,0,1-3.7-.7,7.4,7.4,0,0,1-3.1-2.1,10.5,10.5,0,0,1-2.5-7.6v-.3a10.7,10.7,0,0,1,2.4-7.5,9.9,9.9,0,0,1,12.9-.6,7.1,7.1,0,0,1,2.3,5.7h-5a3.3,3.3,0,0,0-2.3-3.3,3.2,3.2,0,0,0-1.4-.2,3.6,3.6,0,0,0-2.6,1.4,7.5,7.5,0,0,0-1,4.4v.6a8,8,0,0,0,1,4.5,2.7,2.7,0,0,0,1.3,1A4.1,4.1,0,0,0,158.6,784.2Z"/><path class="cls-24" d="M186.8,772.3h-6.4v15.9H175V772.3h-6.4V768h18.2Z"/><path class="cls-24" d="M189.9,788.2V768h8.4a11.5,11.5,0,0,1,6.3,1.5,4.6,4.6,0,0,1,1.7,1.7,4.2,4.2,0,0,1,.5,2.4,3.8,3.8,0,0,1-.9,2.5,5.5,5.5,0,0,1-2.7,1.7,6.1,6.1,0,0,1,3.4,1.7,3.2,3.2,0,0,1,1,1.3,4.5,4.5,0,0,1,.3,1.6,4.7,4.7,0,0,1-.5,2.4,4.9,4.9,0,0,1-1.6,1.9,11.2,11.2,0,0,1-6.2,1.5Zm5.4-12h3.3c1.9,0,2.9-.6,2.9-1.8a1.9,1.9,0,0,0-.8-1.6,5.1,5.1,0,0,0-2.4-.4h-3Zm0,3.6v4h4.3c1.9,0,2.9-.6,2.9-1.9s-.9-2.1-2.7-2.1Z"/><path class="cls-24" d="M218.5,780.6l3.7-12.6H228l-8.1,23.3-.5,1.1a6.1,6.1,0,0,1-5.9,3.9,9.9,9.9,0,0,1-2.4-.3v-4.1h.8a4.6,4.6,0,0,0,2.3-.5,4.4,4.4,0,0,0,1.2-1.5l.6-1.7L208.9,768h5.8Z"/><path class="cls-24" d="M242.2,768h5.4v20.2h-5.4V775.7l-6.7,12.5h-5.4V768h5.4v12.4Zm3.2-8.2a5.1,5.1,0,0,1-.4,2.2,4.2,4.2,0,0,1-1.4,1.8,7.8,7.8,0,0,1-9.3,0,4.9,4.9,0,0,1-1.8-4h3.8a3,3,0,0,0,.2,1,2.2,2.2,0,0,0,.5.8,3.2,3.2,0,0,0,3.9,0,2.2,2.2,0,0,0,.5-.8,1.6,1.6,0,0,0,.1-1Z"/><path class="cls-24" d="M255,782.8a2.5,2.5,0,0,1,1.2.2,2.7,2.7,0,0,1,1,.6,3,3,0,0,1,.8,2,3.2,3.2,0,0,1-.8,2.1,3.6,3.6,0,0,1-4.4,0,3.3,3.3,0,0,1-.6-1,2.8,2.8,0,0,1,0-2.2l.6-.9a2.7,2.7,0,0,1,1-.6A2.5,2.5,0,0,1,255,782.8Zm2.2-3h-4.4l-.7-18.8h5.8Z"/><path class="cls-24" d="M68.3,168.1H309.1V61.1A61.3,61.3,0,0,0,248,0H68.3A61.4,61.4,0,0,0,7.2,61.1V107A61.4,61.4,0,0,0,68.3,168.1Z"/><path class="cls-7" d="M72.7,83.7H69.3V95.5h-6V66.6h6V78.2H72l7.1-11.6h7.2L77.4,80.3l9.9,15.2H80.2Z"/><path class="cls-7" d="M101.6,95.5a6.6,6.6,0,0,1-.6-2,6.1,6.1,0,0,1-2.4,1.8,7.7,7.7,0,0,1-3,.6A7.8,7.8,0,0,1,90.4,94a4.3,4.3,0,0,1-1.5-2,5.8,5.8,0,0,1-.6-2.6,6.1,6.1,0,0,1,2.6-5.2,12.3,12.3,0,0,1,7.3-1.9h2.6V81.1a3.1,3.1,0,0,0-.8-2.4,3,3,0,0,0-1.1-.7,2.5,2.5,0,0,0-1.2-.1,3,3,0,0,0-2.3.7,2.7,2.7,0,0,0-.7.8,4.3,4.3,0,0,0-.2,1.1H88.8A5.5,5.5,0,0,1,90,77a7.2,7.2,0,0,1,3.2-2.5,12.7,12.7,0,0,1,4.7-.9,9.5,9.5,0,0,1,6.3,2,7,7,0,0,1,1.9,2.6,7.6,7.6,0,0,1,.5,3v9.3a9.6,9.6,0,0,0,.9,4.7v.3Zm-4.7-4a4.6,4.6,0,0,0,2.3-.6,3.3,3.3,0,0,0,1.6-1.5V85.7H98.7c-2.9,0-4.4,1-4.6,3V89a1.6,1.6,0,0,0,.2,1,2.2,2.2,0,0,0,.5.8A3.1,3.1,0,0,0,96.9,91.5Z"/><path class="cls-7" d="M119.4,87.6h-2.3v7.9h-5.8V74h5.8v8.1h2l4.7-8.1h7.3L124,84.2l7.7,11.3h-7.6Z"/><path class="cls-7" d="M144.3,90.9a13.6,13.6,0,0,0,2.6-4.1,18.9,18.9,0,0,0,.8-5.8l.2-7h15.8V90.9h3v11H161V95.5H148.3v6.4h-5.8v-11Zm6.7,0h6.9V78.8h-4.5v2.5A19,19,0,0,1,151,90.9Z"/><path class="cls-7" d="M179.5,95.9a11.4,11.4,0,0,1-4.1-.7,10.9,10.9,0,0,1-3.6-2.2,10.5,10.5,0,0,1-2.3-3.6,9.5,9.5,0,0,1-.6-4.1v-.6a11.7,11.7,0,0,1,1.2-5.8,9.4,9.4,0,0,1,3.5-3.9,10.8,10.8,0,0,1,5.3-1.4,9,9,0,0,1,6.9,2.8,11.2,11.2,0,0,1,2.5,7.9v2.3H174.7a5.1,5.1,0,0,0,1.7,3.4,4.8,4.8,0,0,0,3.5,1.2,5.8,5.8,0,0,0,2.9-.5,7.1,7.1,0,0,0,2.3-1.9l2.8,3.2a8.7,8.7,0,0,1-3.5,2.8A12.1,12.1,0,0,1,179.5,95.9Zm-.7-17.7a3.6,3.6,0,0,0-2.7,1.2,5.8,5.8,0,0,0-1.4,3.3h8v-.5a4,4,0,0,0-1-2.9A4.4,4.4,0,0,0,178.8,78.2Z"/><path class="cls-7" d="M210.2,74V95.5h-5.7V78.7h-5l-.4,6.6A14.9,14.9,0,0,1,197,93a6,6,0,0,1-2.3,1.9,4.9,4.9,0,0,1-2.9.6h-1.9V90.8h.7a2.7,2.7,0,0,0,2.3-1.9,18.5,18.5,0,0,0,.9-5.8l.4-9.1Z"/><path class="cls-7" d="M227.1,95.5a4.6,4.6,0,0,1-.5-2,7.3,7.3,0,0,1-5.5,2.4,7.8,7.8,0,0,1-5.2-1.9,4.3,4.3,0,0,1-1.5-2,5.8,5.8,0,0,1-.6-2.6,6.1,6.1,0,0,1,2.6-5.2,12.5,12.5,0,0,1,7.3-1.9h2.6V81.1a3.4,3.4,0,0,0-.7-2.4l-1.2-.7a2.5,2.5,0,0,0-1.2-.1,3.2,3.2,0,0,0-2.3.7,1.6,1.6,0,0,0-.6.8,2.3,2.3,0,0,0-.3,1.1h-5.7a5.5,5.5,0,0,1,1.2-3.5,7.2,7.2,0,0,1,3.2-2.5,12.7,12.7,0,0,1,4.7-.9,9.8,9.8,0,0,1,6.4,2,8.1,8.1,0,0,1,1.8,2.6,6.1,6.1,0,0,1,.5,3v9.3a9.6,9.6,0,0,0,.9,4.7v.3Zm-4.7-4a4.6,4.6,0,0,0,2.3-.6,3.3,3.3,0,0,0,1.6-1.5V85.7h-2.1c-2.9,0-4.4,1-4.6,3V89a1.6,1.6,0,0,0,.2,1,2.2,2.2,0,0,0,.5.8A3.1,3.1,0,0,0,222.4,91.5Z"/><path class="cls-7" d="M241.1,86.6a13.1,13.1,0,0,1,.7-4.4,9,9,0,0,1,2.5-3.3,12,12,0,0,0,2.4-2.6,3.7,3.7,0,0,0,.6-2.1c0-2.2-1.1-3.3-3.1-3.3a1.9,1.9,0,0,0-1.3.2,2.6,2.6,0,0,0-1.1.7,3.8,3.8,0,0,0-.9,2.5h-5.8a7.7,7.7,0,0,1,2.5-6,11.4,11.4,0,0,1,13.1-.1,8.2,8.2,0,0,1,1.6,9,12.2,12.2,0,0,1-2.7,3.3L248,82a5.6,5.6,0,0,0-1.7,3.4v1.3h-5.1Zm-.5,6.1a2.7,2.7,0,0,1,.9-2.2,3.6,3.6,0,0,1,4.6,0,3.1,3.1,0,0,1,0,4.4,3.8,3.8,0,0,1-4.7,0,2.7,2.7,0,0,1-.6-1A2.5,2.5,0,0,1,240.6,92.7Z"/><path class="cls-7" d="M767.2,243.3H553V148.1a54.5,54.5,0,0,1,54.3-54.3H767.2a54.5,54.5,0,0,1,54.3,54.3V189A54.4,54.4,0,0,1,767.2,243.3Z"/><path class="cls-24" d="M637.6,178.9h-6V154.8H620.1v24.1h-6V150h23.5v28.9Z"/><path class="cls-24" d="M661.8,168.4a13.1,13.1,0,0,1-2.3,7.9,7.3,7.3,0,0,1-2.7,2.2,6.6,6.6,0,0,1-3.4.8,6.4,6.4,0,0,1-2.8-.6,6.1,6.1,0,0,1-2.4-1.7v10.1h-5.7V157.4h5.3l.2,2.1a5.5,5.5,0,0,1,2.4-1.8,6.3,6.3,0,0,1,3-.7,7.1,7.1,0,0,1,6.1,3,12.9,12.9,0,0,1,2.2,8.1Zm-5.8-.5a8.2,8.2,0,0,0-1-4.6,4.1,4.1,0,0,0-1.4-1.2,3.3,3.3,0,0,0-1.7-.4,4.1,4.1,0,0,0-2.2.4,4.6,4.6,0,0,0-1.5,1.6v8.8a4.1,4.1,0,0,0,1.5,1.7,4.3,4.3,0,0,0,2.2.4C654.7,174.6,656.1,172.4,656,167.9Z"/><path class="cls-24" d="M678.2,157.4h5.7v21.5h-5.7V165.6L671,178.9h-5.7V157.4H671v13.3Z"/><path class="cls-24" d="M688.7,178.9V157.4h9a12.3,12.3,0,0,1,6.7,1.6,4.8,4.8,0,0,1,2.3,4.4,3.9,3.9,0,0,1-1,2.7,5.9,5.9,0,0,1-2.8,1.8,5.7,5.7,0,0,1,4.6,3.1,5.7,5.7,0,0,1,.3,1.8,4.5,4.5,0,0,1-.5,2.5,5.5,5.5,0,0,1-1.7,2,11.8,11.8,0,0,1-6.6,1.6Zm5.7-12.8H698c2,0,3-.6,3-1.9a1.5,1.5,0,0,0-.2-.9,1.1,1.1,0,0,0-.6-.7,4.5,4.5,0,0,0-2.5-.5h-3.3Zm0,3.9v4.3h4.7q3,0,3-2.1c0-1.4-1-2.2-2.9-2.2Z"/><path class="cls-24" d="M721.2,179.3a12.3,12.3,0,0,1-4.2-.7,9.9,9.9,0,0,1-3.5-2.2,10.6,10.6,0,0,1-3-7.7v-.6a12.9,12.9,0,0,1,1.3-5.8,9.4,9.4,0,0,1,3.5-3.9,10.7,10.7,0,0,1,5.2-1.4,9.9,9.9,0,0,1,3.8.7,8.5,8.5,0,0,1,3.2,2.1,11.2,11.2,0,0,1,2.5,7.9V170H716.3a6.1,6.1,0,0,0,1.7,3.4,4.6,4.6,0,0,0,3.5,1.2,6.1,6.1,0,0,0,5.2-2.3l2.8,3.1a8.7,8.7,0,0,1-3.5,2.8A10,10,0,0,1,721.2,179.3Zm-.7-17.6a2.6,2.6,0,0,0-1.5.2,2.7,2.7,0,0,0-1.2.9,5.8,5.8,0,0,0-1.4,3.3h8v-.4a4.6,4.6,0,0,0-1.1-3,2.9,2.9,0,0,0-1.3-.8A2.5,2.5,0,0,0,720.5,161.7Z"/><path class="cls-24" d="M750.8,162H744v16.9h-5.8V162h-6.8v-4.6h19.4Z"/><path class="cls-24" d="M757.2,173.1l1.2.2a4.1,4.1,0,0,1,1.1.7,3,3,0,0,1,0,4.3,3.3,3.3,0,0,1-2.3.9,3.2,3.2,0,0,1-2.3-.9,1.8,1.8,0,0,1-.7-1,3.1,3.1,0,0,1,0-2.3,2.3,2.3,0,0,1,.7-1l1-.7Zm2.3-3.1h-4.7l-.7-20h6.1Z"/><path class="cls-24" d="M817.9,600.5H553V713.6c0,35.4,30.2,64.5,67.1,64.5H817.7c37,0,67.1-29.1,67.1-64.5V665.1C885.1,629.5,854.8,600.5,817.9,600.5Z"/><path class="cls-7" d="M629.5,671.1v27.8h-5.8V688.4a32.9,32.9,0,0,1-5.4.5,12.2,12.2,0,0,1-8.1-2.3,7.8,7.8,0,0,1-2.1-3,9.4,9.4,0,0,1-.7-3.7v-8.8h5.8v8.7a3.6,3.6,0,0,0,.2,1.8,4.2,4.2,0,0,0,.9,1.6,5.7,5.7,0,0,0,3.9,1.1,33.1,33.1,0,0,0,5.5-.5V671.1Z"/><path class="cls-7" d="M651.3,682.7h-6.7v16.2h-5.5V682.7h-6.5v-4.5h18.7Z"/><path class="cls-7" d="M652.6,688.4a13,13,0,0,1,1.2-5.5,7.7,7.7,0,0,1,3.4-3.7,10.7,10.7,0,0,1,5.2-1.4,9.5,9.5,0,0,1,6.8,2.6,10.4,10.4,0,0,1,3,7v1.4a9.8,9.8,0,0,1-16.9,7.6,10.7,10.7,0,0,1-2.7-7.8Zm5.5.4a9.1,9.1,0,0,0,1.1,4.5,3.6,3.6,0,0,0,1.4,1.1,3.8,3.8,0,0,0,3.6,0,3.6,3.6,0,0,0,1.4-1.1,9.3,9.3,0,0,0,1.1-4.9,7.9,7.9,0,0,0-1.1-4.5,4.1,4.1,0,0,0-5-1.2,3.7,3.7,0,0,0-1.3,1.2A8.5,8.5,0,0,0,658.1,688.8Z"/><path class="cls-7" d="M703.3,698.9h-5.6V691h-6.8v7.9h-5.5V678.2h5.5v8.3h6.8v-8.3h5.6Z"/><path class="cls-7" d="M706.7,688.4a13,13,0,0,1,1.2-5.5,7.7,7.7,0,0,1,3.4-3.7,10.7,10.7,0,0,1,5.2-1.4,9.5,9.5,0,0,1,6.8,2.6,10.4,10.4,0,0,1,3,7v1.4a10.8,10.8,0,0,1-2.7,7.6,10.3,10.3,0,0,1-14.2,0,10.7,10.7,0,0,1-2.7-7.8v-.2Zm5.5.4a8.2,8.2,0,0,0,1.2,4.5,2.6,2.6,0,0,0,1.4,1.1,3.4,3.4,0,0,0,1.7.5,4.1,4.1,0,0,0,1.8-.5,3.6,3.6,0,0,0,1.4-1.1,9.3,9.3,0,0,0,1.1-4.9,7.9,7.9,0,0,0-1.1-4.5,4.2,4.2,0,0,0-3.2-1.6,3.8,3.8,0,0,0-3.1,1.6A8.5,8.5,0,0,0,712.2,688.8Z"/><path class="cls-7" d="M730.1,698.9V678.2h8.6a12.2,12.2,0,0,1,6.5,1.5,4.9,4.9,0,0,1,1.7,1.8,5.4,5.4,0,0,1,.6,2.5,3.9,3.9,0,0,1-1,2.5,5.4,5.4,0,0,1-2.7,1.8,6.8,6.8,0,0,1,3.5,1.7,3.9,3.9,0,0,1,1.2,3,4.5,4.5,0,0,1-.5,2.5,5.2,5.2,0,0,1-1.7,1.9,11.2,11.2,0,0,1-6.2,1.5Zm5.5-12.3H739c1.9,0,2.9-.6,2.9-1.8s0-.7-.2-.9a1.1,1.1,0,0,0-.6-.7,4,4,0,0,0-2.4-.5h-3.1v3.9Zm0,3.7v4.2h4.5c1.9,0,2.9-.7,2.9-2.1s-.9-2.1-2.8-2.1Z"/><path class="cls-7" d="M751,688.4a13,13,0,0,1,1.2-5.5,7.7,7.7,0,0,1,3.4-3.7,10.7,10.7,0,0,1,5.2-1.4,10,10,0,0,1,6.8,2.6,10.4,10.4,0,0,1,3,7v1.4a10.8,10.8,0,0,1-2.7,7.6,10.3,10.3,0,0,1-14.2,0,10.7,10.7,0,0,1-2.7-7.8Zm5.5.4a8.2,8.2,0,0,0,1.2,4.5,2.6,2.6,0,0,0,1.4,1.1,3.9,3.9,0,0,0,4.9-1.1,9.3,9.3,0,0,0,1.1-4.9,7.7,7.7,0,0,0-1.1-4.5,4.1,4.1,0,0,0-1.4-1.2,3.7,3.7,0,0,0-1.8-.4,3.9,3.9,0,0,0-1.8.4,3.7,3.7,0,0,0-1.3,1.2A8.5,8.5,0,0,0,756.5,688.8Z"/><path class="cls-7" d="M788.1,682.7h-8.6v16.2H774V678.2h14.1Z"/><path class="cls-7" d="M789.2,688.4a11.5,11.5,0,0,1,1.1-5.5,8.4,8.4,0,0,1,3.5-3.7,9.7,9.7,0,0,1,14.9,8.2v1.4a10.7,10.7,0,0,1-2.6,7.6,10.4,10.4,0,0,1-14.3,0,11.6,11.6,0,0,1-2.7-7.8v-.2Zm5.5.4a8.1,8.1,0,0,0,1.1,4.5,3,3,0,0,0,1.4,1.1,3.4,3.4,0,0,0,1.7.5,4.1,4.1,0,0,0,1.8-.5,3.6,3.6,0,0,0,1.4-1.1,7.7,7.7,0,0,0,1.1-4.9,7.9,7.9,0,0,0-1.1-4.5,3.9,3.9,0,0,0-3.2-1.6,3.3,3.3,0,0,0-1.7.4,3.3,3.3,0,0,0-1.4,1.2A7.7,7.7,0,0,0,794.7,688.8Z"/><path class="cls-7" d="M816.7,690.4a10.4,10.4,0,0,1,.6-4.3,9.2,9.2,0,0,1,2.4-3.1,13.7,13.7,0,0,0,2.3-2.5,3.9,3.9,0,0,0,.6-2.1c0-2.1-1-3.2-3-3.2a2.5,2.5,0,0,0-1.2.2,2.6,2.6,0,0,0-1.1.7,3.3,3.3,0,0,0-.9,2.3h-5.5a7.7,7.7,0,0,1,2.3-5.7,11.1,11.1,0,0,1,12.7-.1,7.2,7.2,0,0,1,2.2,5.6,6.3,6.3,0,0,1-.7,3,11.4,11.4,0,0,1-2.6,3.2l-1.5,1.5a5.3,5.3,0,0,0-1.7,3.3v1.1Zm-.6,5.8a4.3,4.3,0,0,1,.2-1.1,3.6,3.6,0,0,1,.7-1,3.3,3.3,0,0,1,4.4,0,2.9,2.9,0,0,1,.9,2.1,3,3,0,0,1-.8,2.1,3.5,3.5,0,0,1-4.5,0A2.7,2.7,0,0,1,816.1,696.2Z"/></svg>
